<?xml version="1.0" encoding="UTF-8"?>
<svg id="Layer_1" data-name="Layer 1" xmlns="http://www.w3.org/2000/svg" viewBox="0 0 1457 527.5">
  <defs>
    <style>
      .cls-1 {
        letter-spacing: -.04em;
      }

      .cls-2 {
        font-family: Bahnschrift-Bold, Bahnschrift;
        font-size: 143.11px;
        font-variation-settings: 'wght' 700, 'wdth' 100;
        font-weight: 700;
      }

      .cls-2, .cls-3 {
        fill: #008ef8;
      }

      .cls-4 {
        fill: #75ab17;
      }

      .cls-5 {
        letter-spacing: -.06em;
      }

      .cls-6 {
        letter-spacing: -.01em;
      }

      .cls-7 {
        letter-spacing: -.04em;
      }

      .cls-8 {
        fill: #00000b;
        font-family: Bahnschrift-SemiLight, Bahnschrift;
        font-size: 78.38px;
        font-variation-settings: 'wght' 350, 'wdth' 100;
        font-weight: 300;
      }

      .cls-9 {
        letter-spacing: -.02em;
      }

      .cls-10 {
        letter-spacing: 0em;
      }

      .cls-11 {
        letter-spacing: -.02em;
      }

      .cls-12 {
        letter-spacing: 0em;
      }

      .cls-13 {
        letter-spacing: 0em;
      }

      .cls-14 {
        letter-spacing: 0em;
      }
    </style>
  </defs>
  <g>
    <circle class="cls-3" cx="387" cy="264.96" r="19.5"/>
    <path class="cls-4" d="M387,178.46c-47.77,0-86.5,38.73-86.5,86.5s38.73,86.5,86.5,86.5,86.5-38.73,86.5-86.5-38.73-86.5-86.5-86.5ZM387,313.46c-26.79,0-48.5-21.71-48.5-48.5s21.71-48.5,48.5-48.5,48.5,21.71,48.5,48.5-21.71,48.5-48.5,48.5Z"/>
    <path class="cls-3" d="M263.5,265.46h-133c-.15,0-.3.01-.45.02-3.49-9.91-12.94-17.02-24.05-17.02-14.08,0-25.5,11.42-25.5,25.5s11.42,25.5,25.5,25.5c11.48,0,21.18-7.58,24.38-18.01.04,0,.08,0,.12,0h133c4.42,0,8-3.58,8-8s-3.58-8-8-8ZM106,284.46c-5.8,0-10.5-4.7-10.5-10.5s4.7-10.5,10.5-10.5,10.5,4.7,10.5,10.5-4.7,10.5-10.5,10.5Z"/>
    <path class="cls-3" d="M575.5,256.46s-42-130-170-149c0,0-67-9-112,29,0,0-.39.35-1.1,1h-45.9c-.15,0-.3.01-.45.02-3.49-9.91-12.94-17.02-24.05-17.02-14.08,0-25.5,11.42-25.5,25.5s11.42,25.5,25.5,25.5c11.48,0,21.18-7.58,24.38-18.01.04,0,.08,0,.12,0h29.16c-13.96,13.86-32.62,33.72-42.65,50h-47.51c-.15,0-.3.01-.45.02-3.49-9.91-12.94-17.02-24.05-17.02-14.08,0-25.5,11.42-25.5,25.5s11.42,25.5,25.5,25.5c11.48,0,21.18-7.58,24.38-18.01.04,0,.08,0,.12,0h63s4.66,0,6.83-3c0,0,58.17-99,158.17-79s135,125,135,125c0,0-46,132-171,134,0,0-57,2-104-63,0,0-3-4-11-4h-68c-.15,0-.3.01-.45.02-3.49-9.91-12.94-17.02-24.05-17.02-14.08,0-25.5,11.42-25.5,25.5s11.42,25.5,25.5,25.5c11.48,0,21.18-7.58,24.38-18.01.04,0,.08,0,.12,0h57.42c5.26,7.33,24.23,33.06,39.58,45,0,0,.37.36,1.06,1h-31.06c-.15,0-.3.01-.45.02-3.49-9.91-12.94-17.02-24.05-17.02-14.08,0-25.5,11.42-25.5,25.5s11.42,25.5,25.5,25.5c11.48,0,21.18-7.58,24.38-18.01.04,0,.08,0,.12,0h53.88c29.39,16.31,84.18,33.16,154.63-6.5,0,0,76.96-46.5,106.72-136,0,0,.77-4.5-1.23-8.5ZM222,156.46c-5.8,0-10.5-4.7-10.5-10.5s4.7-10.5,10.5-10.5,10.5,4.7,10.5,10.5-4.7,10.5-10.5,10.5ZM161,222.46c-5.8,0-10.5-4.7-10.5-10.5s4.7-10.5,10.5-10.5,10.5,4.7,10.5,10.5-4.7,10.5-10.5,10.5ZM170,348.46c-5.8,0-10.5-4.7-10.5-10.5s4.7-10.5,10.5-10.5,10.5,4.7,10.5,10.5-4.7,10.5-10.5,10.5ZM237,410.46c-5.8,0-10.5-4.7-10.5-10.5s4.7-10.5,10.5-10.5,10.5,4.7,10.5,10.5-4.7,10.5-10.5,10.5Z"/>
  </g>
  <text class="cls-2" transform="translate(608.5 262.31)"><tspan x="0" y="0">E</tspan><tspan class="cls-6" x="85.53" y="0">A-</tspan><tspan class="cls-7" x="242.61" y="0">A</tspan><tspan class="cls-13" x="329.68" y="0">U</tspan><tspan class="cls-11" x="422.06" y="0">R</tspan><tspan x="511.85" y="0">A.AI</tspan></text>
  <text class="cls-8" transform="translate(619.69 358.59)"><tspan x="0" y="0">Vision. </tspan><tspan class="cls-1" x="251.28" y="0">V</tspan><tspan class="cls-12" x="293.84" y="0">elocit</tspan><tspan class="cls-5" x="485.53" y="0">y</tspan><tspan class="cls-10" x="518.79" y="0">. </tspan><tspan class="cls-9" x="557.59" y="0">V</tspan><tspan class="cls-10" x="601.68" y="0">a</tspan><tspan class="cls-14" x="643.39" y="0">l</tspan><tspan class="cls-10" x="665.7" y="0">ue</tspan></text>
</svg>