<?xml version="1.0" encoding="UTF-8"?>
<svg version="1.1" xmlns="http://www.w3.org/2000/svg" width="570" height="438">
<path d="M0 0 C3.14194423 0.0138927 6.28091054 -0.02040937 9.42260742 -0.05834961 C22.41235986 -0.10596205 34.14793253 1.45588529 46.6461792 4.99568176 C49.3393872 5.75362198 52.05406421 6.41447192 54.7722168 7.07641602 C60.63435481 8.72629448 66.13469232 11.15069461 71.7097168 13.57641602 C73.38227539 14.25704102 73.38227539 14.25704102 75.08862305 14.95141602 C86.76538673 19.75258812 97.43521189 25.65485098 107.6237793 33.13110352 C109.59177388 34.49469527 111.54279682 35.56649404 113.7097168 36.57641602 C113.7097168 37.23641602 113.7097168 37.89641602 113.7097168 38.57641602 C114.56243164 38.96700195 114.56243164 38.96700195 115.43237305 39.36547852 C117.90629582 40.68094346 119.95354178 42.21016271 122.1472168 43.95141602 C122.92838867 44.57145508 123.70956055 45.19149414 124.5144043 45.83032227 C125.23885742 46.4065332 125.96331055 46.98274414 126.7097168 47.57641602 C128.2256543 48.72110352 128.2256543 48.72110352 129.7722168 49.88891602 C130.4115918 50.44579102 131.0509668 51.00266602 131.7097168 51.57641602 C131.7097168 52.23641602 131.7097168 52.89641602 131.7097168 53.57641602 C133.0297168 54.23641602 134.3497168 54.89641602 135.7097168 55.57641602 C135.7097168 56.23641602 135.7097168 56.89641602 135.7097168 57.57641602 C136.6997168 57.90641602 137.6897168 58.23641602 138.7097168 58.57641602 C140.8972168 60.51391602 140.8972168 60.51391602 142.7097168 62.57641602 C142.7097168 63.23641602 142.7097168 63.89641602 142.7097168 64.57641602 C143.6997168 64.90641602 144.6897168 65.23641602 145.7097168 65.57641602 C147.54956055 67.55297852 147.54956055 67.55297852 149.6472168 70.20141602 C150.83637695 71.69608398 150.83637695 71.69608398 152.04956055 73.22094727 C152.69127197 74.03426514 152.69127197 74.03426514 153.34594727 74.86401367 C154.76222197 76.64234356 156.20352456 78.39773147 157.65112305 80.15063477 C163.52885652 87.30843312 168.88659755 94.57840167 173.76049805 102.45532227 C175.35504057 105.00850758 177.0215875 107.44366705 178.7722168 109.88891602 C182.45028415 115.34998 185.02291194 121.38080478 187.7565918 127.34985352 C189.40594169 130.95034237 191.15569508 134.48787356 192.9597168 138.01391602 C202.79812657 157.66392791 202.79812657 157.66392791 199.7097168 167.63891602 C199.06639287 169.29401303 198.39502166 170.93825575 197.7097168 172.57641602 C197.20300377 173.85967705 196.69794303 175.14359115 196.1940918 176.42797852 C190.26742971 191.35413326 183.4986987 206.34788588 174.0222168 219.38891602 C172.34292638 221.70361362 170.95173447 223.84514998 169.5847168 226.32641602 C168.05106286 228.98474951 166.86267834 230.52131636 164.7097168 232.57641602 C163.53396969 234.67631254 163.53396969 234.67631254 162.7097168 236.57641602 C162.0497168 236.57641602 161.3897168 236.57641602 160.7097168 236.57641602 C160.4519043 237.3021582 160.1940918 238.02790039 159.9284668 238.77563477 C158.6572918 241.69689268 157.16955278 243.8851425 155.2097168 246.38891602 C154.6012793 247.17911133 153.9928418 247.96930664 153.3659668 248.78344727 C152.8194043 249.37512695 152.2728418 249.96680664 151.7097168 250.57641602 C151.0497168 250.57641602 150.3897168 250.57641602 149.7097168 250.57641602 C149.0497168 251.89641602 148.3897168 253.21641602 147.7097168 254.57641602 C147.0497168 254.57641602 146.3897168 254.57641602 145.7097168 254.57641602 C145.3694043 255.38079102 145.3694043 255.38079102 145.0222168 256.20141602 C142.57921016 260.62209469 139.41485509 264.10412161 135.5222168 267.26391602 C132.58216924 269.45313327 132.58216924 269.45313327 130.7097168 272.57641602 C130.0497168 272.57641602 129.3897168 272.57641602 128.7097168 272.57641602 C128.3797168 273.56641602 128.0497168 274.55641602 127.7097168 275.57641602 C125.93237305 277.40063477 125.93237305 277.40063477 123.7722168 279.26391602 C122.70680664 280.1978418 122.70680664 280.1978418 121.61987305 281.15063477 C119.7097168 282.57641602 119.7097168 282.57641602 117.7097168 282.57641602 C117.3797168 283.56641602 117.0497168 284.55641602 116.7097168 285.57641602 C114.59995928 287.68502983 112.19243982 289.44032785 109.8347168 291.26391602 C109.19663086 291.7750293 108.55854492 292.28614258 107.90112305 292.81274414 C107.28366211 293.29549805 106.66620117 293.77825195 106.0300293 294.27563477 C105.46558105 294.71738037 104.90113281 295.15912598 104.31958008 295.61425781 C102.7097168 296.57641602 102.7097168 296.57641602 99.7097168 296.57641602 C99.7097168 297.23641602 99.7097168 297.89641602 99.7097168 298.57641602 C92.17368884 304.48389556 83.15188171 308.55994772 74.56225586 312.68481445 C72.94678228 313.46231966 71.33923892 314.25625937 69.7331543 315.05297852 C63.64173229 317.98189234 57.49404514 319.91825628 50.97143555 321.67407227 C48.37724262 322.39174719 45.91398737 323.19938658 43.3972168 324.13891602 C8.10157538 336.16703963 -32.63161447 329.48812035 -65.2902832 313.57641602 C-65.9502832 313.24641602 -66.6102832 312.91641602 -67.2902832 312.57641602 C-69.10746404 312.45684128 -70.92886155 312.39916921 -72.74975586 312.37109375 C-73.89078766 312.35114853 -75.03181946 312.33120331 -76.20742798 312.31065369 C-77.44391083 312.29394119 -78.68039368 312.2772287 -79.9543457 312.26000977 C-81.21669037 312.23922867 -82.47903503 312.21844757 -83.77963257 312.19703674 C-87.13660366 312.14263675 -90.49358509 312.09241365 -93.85064697 312.04418945 C-97.27589386 311.99396559 -100.70105149 311.93828416 -104.1262207 311.88305664 C-110.84750381 311.77579742 -117.56885364 311.67404162 -124.2902832 311.57641602 C-124.58451172 312.35291504 -124.87874023 313.12941406 -125.18188477 313.92944336 C-127.51984555 319.5127409 -132.17393846 324.00146179 -136.9777832 327.57641602 C-145.01216235 330.00188897 -153.37924274 330.49100987 -161.2902832 327.57641602 C-167.26757733 324.17756249 -173.77482089 319.05321539 -176.0559082 312.31469727 C-177.76338796 303.76352846 -177.74046345 295.24930853 -173.0715332 287.57250977 C-169.70130735 282.70540169 -166.60790944 280.13675457 -161.2902832 277.57641602 C-160.31768555 277.05821289 -160.31768555 277.05821289 -159.32543945 276.52954102 C-152.30707019 273.2426272 -145.48414329 274.74861578 -138.38793945 277.13891602 C-132.87997915 279.69494299 -128.65441645 283.64860071 -126.07861328 289.17700195 C-124.49281277 291.86225093 -124.49281277 291.86225093 -121.47119141 292.14404297 C-120.35574951 292.11785889 -119.24030762 292.0916748 -118.09106445 292.06469727 C-116.88256836 292.04858398 -115.67407227 292.0324707 -114.42895508 292.01586914 C-113.16631836 291.97397461 -111.90368164 291.93208008 -110.6027832 291.88891602 C-109.32854492 291.86635742 -108.05430664 291.84379883 -106.74145508 291.82055664 C-103.5898936 291.76153864 -100.44067042 291.67924577 -97.2902832 291.57641602 C-97.2902832 290.91641602 -97.2902832 290.25641602 -97.2902832 289.57641602 C-98.2802832 289.57641602 -99.2702832 289.57641602 -100.2902832 289.57641602 C-101.54464886 288.15700224 -102.79090293 286.7275137 -103.9543457 285.23266602 C-105.43898997 283.32547578 -105.43898997 283.32547578 -108.0402832 280.88891602 C-110.2902832 278.57641602 -110.2902832 278.57641602 -111.2902832 275.57641602 C-113.29044787 274.36759505 -113.29044787 274.36759505 -115.2902832 273.57641602 C-115.2902832 272.91641602 -115.2902832 272.25641602 -115.2902832 271.57641602 C-115.9502832 271.57641602 -116.6102832 271.57641602 -117.2902832 271.57641602 C-118.92168257 269.65054022 -120.42751545 267.73314885 -121.9152832 265.70141602 C-122.33551758 265.14583008 -122.75575195 264.59024414 -123.1887207 264.01782227 C-126.2902832 259.8387689 -126.2902832 259.8387689 -126.2902832 257.57641602 C-127.2802832 257.24641602 -128.2702832 256.91641602 -129.2902832 256.57641602 C-130.67700195 255.01782227 -130.67700195 255.01782227 -131.9777832 253.13891602 C-132.41477539 252.52145508 -132.85176758 251.90399414 -133.30200195 251.26782227 C-134.2902832 249.57641602 -134.2902832 249.57641602 -134.2902832 247.57641602 C-153.7602832 247.57641602 -173.2302832 247.57641602 -193.2902832 247.57641602 C-193.9502832 249.22641602 -194.6102832 250.87641602 -195.2902832 252.57641602 C-199.49862027 258.53915217 -204.37128932 263.26468431 -211.57543945 265.18579102 C-219.00240284 266.25441884 -227.96416456 265.89778671 -234.5480957 261.99829102 C-241.04753018 256.69381982 -245.50634756 249.52452772 -246.6027832 241.20532227 C-246.98672296 233.51452892 -244.5311832 227.36870831 -240.6652832 220.82641602 C-233.37280968 213.91775689 -225.76685885 211.10304311 -215.8605957 211.15844727 C-208.19515494 212.05582381 -201.43555704 215.87614635 -196.2902832 221.57641602 C-194.65559288 224.27365505 -194.2902832 225.35762587 -194.2902832 228.57641602 C-193.38319107 228.56753357 -192.47609894 228.55865112 -191.54151917 228.54949951 C-182.96486289 228.46912722 -174.38833434 228.40833692 -165.81138706 228.36916733 C-161.40257678 228.34835233 -156.99407944 228.32014708 -152.58544922 228.2746582 C-148.32548412 228.23098172 -144.06581875 228.20723319 -139.8056469 228.19690704 C-138.18583398 228.18955457 -136.56603623 228.17519734 -134.94635201 228.15349579 C-116.22667018 227.91280621 -116.22667018 227.91280621 -109.09887695 234.64672852 C-108.64641602 235.32477539 -108.19395508 236.00282227 -107.7277832 236.70141602 C-107.25211914 237.38461914 -106.77645508 238.06782227 -106.28637695 238.77172852 C-105.2902832 240.57641602 -105.2902832 240.57641602 -105.2902832 242.57641602 C-104.6302832 242.57641602 -103.9702832 242.57641602 -103.2902832 242.57641602 C-103.1871582 243.21579102 -103.0840332 243.85516602 -102.9777832 244.51391602 C-102.7509082 245.19454102 -102.5240332 245.87516602 -102.2902832 246.57641602 C-101.3002832 246.90641602 -100.3102832 247.23641602 -99.2902832 247.57641602 C-99.2902832 248.23641602 -99.2902832 248.89641602 -99.2902832 249.57641602 C-98.3002832 249.90641602 -97.3102832 250.23641602 -96.2902832 250.57641602 C-96.2902832 251.56641602 -96.2902832 252.55641602 -96.2902832 253.57641602 C-95.70118164 253.8484082 -95.11208008 254.12040039 -94.50512695 254.40063477 C-92.33636373 255.55195351 -90.69521905 256.77625277 -88.8527832 258.38891602 C-88.29719727 258.86973633 -87.74161133 259.35055664 -87.16918945 259.84594727 C-85.73812734 261.1639525 -84.36022064 262.53992261 -83.0090332 263.93969727 C-60.50888146 285.76096512 -29.92560737 297.03720921 1.00268555 296.72485352 C30.33240622 296.13036508 60.6252683 286.37606219 84.7097168 269.57641602 C85.5862793 268.97313477 86.4628418 268.36985352 87.3659668 267.74829102 C94.85498803 262.45432773 101.77052352 256.55690496 108.7097168 250.57641602 C110.12631509 249.38883445 111.54296606 248.20131571 112.9597168 247.01391602 C115.71470834 244.87701769 115.71470834 244.87701769 116.7097168 242.57641602 C117.3697168 242.57641602 118.0297168 242.57641602 118.7097168 242.57641602 C118.96108398 242.00149414 119.21245117 241.42657227 119.47143555 240.83422852 C120.87218816 238.28017486 122.49811738 236.54686588 124.5222168 234.45141602 C130.74849567 227.6802116 135.94267583 220.16842843 141.23486328 212.65991211 C142.18446595 211.31842739 143.1417465 209.98232804 144.10839844 208.65307617 C146.5369052 205.31325628 148.71620602 201.97574653 150.6472168 198.32641602 C151.15124023 197.3815332 151.65526367 196.43665039 152.17456055 195.46313477 C152.93446289 194.03420898 152.93446289 194.03420898 153.7097168 192.57641602 C154.70841362 190.76319763 155.7084039 188.95069104 156.7097168 187.13891602 C159.85313738 181.34710172 162.91493118 175.54562575 165.7097168 169.57641602 C166.13510742 168.77848633 166.56049805 167.98055664 166.9987793 167.15844727 C168.87085948 162.89267678 168.96889379 160.435744 167.6081543 155.92407227 C165.90208096 151.67612727 163.82720137 147.63074209 161.7097168 143.57641602 C161.07342592 142.30992776 160.43798231 141.04301341 159.8034668 139.77563477 C152.93287533 126.29358547 144.83344177 113.66187699 135.55639648 101.71533203 C135.06945312 101.08554443 134.58250977 100.45575684 134.08081055 99.80688477 C133.64696045 99.25411865 133.21311035 98.70135254 132.76611328 98.13183594 C131.7097168 96.57641602 131.7097168 96.57641602 130.7097168 93.57641602 C130.0497168 93.57641602 129.3897168 93.57641602 128.7097168 93.57641602 C127.40699742 92.05759132 126.16937841 90.48284984 124.9597168 88.88891602 C116.3369309 78.15527213 106.11207087 69.44098343 94.76831055 61.69750977 C91.7097168 59.57641602 91.7097168 59.57641602 89.10424805 57.47094727 C82.59614357 52.32179446 74.67073592 49.0076027 67.2097168 45.45141602 C66.53457031 45.12689453 65.85942383 44.80237305 65.16381836 44.46801758 C55.70814226 40.02651021 46.1838141 36.99467381 35.9597168 34.88891602 C34.97100586 34.67686523 33.98229492 34.46481445 32.96362305 34.24633789 C12.17954086 29.84810421 -8.73388306 30.20028704 -29.2902832 35.57641602 C-30.70180664 35.91672852 -30.70180664 35.91672852 -32.1418457 36.26391602 C-34.58593999 36.91785429 -36.91585087 37.7012476 -39.2902832 38.57641602 C-39.87777344 38.79104492 -40.46526367 39.00567383 -41.07055664 39.22680664 C-55.27244816 44.50119849 -68.77228613 51.4476535 -80.50512695 61.12329102 C-82.2902832 62.57641602 -82.2902832 62.57641602 -85.5402832 64.70141602 C-88.42140322 66.54100808 -88.42140322 66.54100808 -90.9777832 69.26391602 C-93.2902832 71.57641602 -93.2902832 71.57641602 -96.2902832 72.57641602 C-96.2902832 73.23641602 -96.2902832 73.89641602 -96.2902832 74.57641602 C-97.8996582 76.12719727 -97.8996582 76.12719727 -100.0402832 77.88891602 C-103.20789669 80.56403836 -105.72121285 83.31567288 -108.2902832 86.57641602 C-108.9502832 86.57641602 -109.6102832 86.57641602 -110.2902832 86.57641602 C-110.7234082 87.47360352 -110.7234082 87.47360352 -111.1652832 88.38891602 C-112.2902832 90.57641602 -112.2902832 90.57641602 -114.2902832 93.57641602 C-114.9502832 93.57641602 -115.6102832 93.57641602 -116.2902832 93.57641602 C-116.54293945 94.12813477 -116.7955957 94.67985352 -117.0559082 95.24829102 C-119.58936505 100.02658305 -123.08054887 104.23699864 -126.2902832 108.57641602 C-126.86907227 109.38852539 -127.44786133 110.20063477 -128.04418945 111.03735352 C-128.55852539 111.75149414 -129.07286133 112.46563477 -129.6027832 113.20141602 C-130.05266602 113.83305664 -130.50254883 114.46469727 -130.96606445 115.11547852 C-132.2902832 116.57641602 -132.2902832 116.57641602 -135.2902832 117.57641602 C-137.4830334 117.66603554 -139.67846978 117.69399793 -141.87304688 117.68994141 C-142.53672775 117.69008743 -143.20040863 117.69023346 -143.88420105 117.69038391 C-146.07558472 117.68968783 -148.26688315 117.68190971 -150.45825195 117.67407227 C-151.97854058 117.672207 -153.49882982 117.67078361 -155.01911926 117.66978455 C-159.01892763 117.66596789 -163.01869964 117.65614487 -167.01849365 117.64508057 C-171.10062162 117.63484815 -175.18275548 117.630283 -179.26489258 117.62524414 C-187.2733728 117.61452184 -195.28182348 117.59745563 -203.2902832 117.57641602 C-203.42370117 118.35364014 -203.55711914 119.13086426 -203.69458008 119.93164062 C-204.95182167 125.51348414 -209.81267482 129.97274357 -214.50512695 133.01000977 C-222.5444008 136.86716576 -230.05517193 137.40851557 -238.57543945 134.77954102 C-245.53974463 131.69320146 -250.66929864 126.35394807 -253.6496582 119.37719727 C-256.21496102 112.16619361 -256.0258824 104.94976899 -253.3918457 97.81079102 C-251.3761287 93.72217356 -248.59303404 90.67695761 -245.2902832 87.57641602 C-244.76176758 87.04532227 -244.23325195 86.51422852 -243.6887207 85.96704102 C-237.50703585 80.94265789 -228.90093285 81.623214 -221.35424805 82.2590332 C-217.04586791 82.9215473 -213.62434296 84.84677645 -210.2902832 87.57641602 C-210.2902832 88.23641602 -210.2902832 88.89641602 -210.2902832 89.57641602 C-209.6921582 89.80329102 -209.0940332 90.03016602 -208.4777832 90.26391602 C-205.6784491 91.94351648 -204.7092826 93.66746726 -203.2902832 96.57641602 C-203.2902832 97.56641602 -203.2902832 98.55641602 -203.2902832 99.57641602 C-187.1202832 99.57641602 -170.9502832 99.57641602 -154.2902832 99.57641602 C-153.6302832 97.92641602 -152.9702832 96.27641602 -152.2902832 94.57641602 C-150.66992129 92.32310024 -149.03392219 90.16625318 -147.2902832 88.01391602 C-146.80696533 87.4098291 -146.32364746 86.80574219 -145.82568359 86.18334961 C-144.32068287 84.30877263 -142.80589222 82.44242092 -141.2902832 80.57641602 C-140.56687744 79.67608643 -140.56687744 79.67608643 -139.82885742 78.75756836 C-138.46906998 77.06614829 -137.10048502 75.38236384 -135.7277832 73.70141602 C-134.92211914 72.71399414 -134.11645508 71.72657227 -133.28637695 70.70922852 C-132.62766602 70.00540039 -131.96895508 69.30157227 -131.2902832 68.57641602 C-130.6302832 68.57641602 -129.9702832 68.57641602 -129.2902832 68.57641602 C-128.3002832 66.59641602 -128.3002832 66.59641602 -127.2902832 64.57641602 C-126.6302832 64.57641602 -125.9702832 64.57641602 -125.2902832 64.57641602 C-125.0221582 63.99375977 -124.7540332 63.41110352 -124.4777832 62.81079102 C-123.2754733 60.54855001 -121.95202408 58.77065284 -120.2902832 56.82641602 C-119.7746582 56.21282227 -119.2590332 55.59922852 -118.7277832 54.96704102 C-117.2902832 53.57641602 -117.2902832 53.57641602 -115.2902832 53.57641602 C-114.9602832 52.58641602 -114.6302832 51.59641602 -114.2902832 50.57641602 C-118.35181486 50.34368913 -122.41163563 50.20187291 -126.4777832 50.07641602 C-127.62827148 50.00938477 -128.77875977 49.94235352 -129.96411133 49.87329102 C-136.04991143 49.51423034 -136.04991143 49.51423034 -141.12548828 52.29614258 C-142.38909286 54.34275697 -143.33372846 56.37419054 -144.2902832 58.57641602 C-149.68903453 64.99655273 -156.58973911 68.16408759 -164.8527832 68.88891602 C-171.71562015 68.78629415 -179.92564207 66.09274923 -184.94262695 61.29516602 C-190.61750668 54.05763825 -193.22051371 46.81606646 -192.74731445 37.62719727 C-191.67751429 30.48605259 -188.90293451 25.19126264 -183.2902832 20.57641602 C-182.7334082 20.03758789 -182.1765332 19.49875977 -181.6027832 18.94360352 C-175.28439399 13.63714382 -168.46576733 13.55334219 -160.5559082 13.99438477 C-154.94976931 14.57378337 -151.24188786 16.58109892 -147.2902832 20.57641602 C-146.68700195 21.17583008 -146.0837207 21.77524414 -145.4621582 22.39282227 C-142.66772929 25.41576756 -141.20824975 27.55044737 -140.2902832 31.57641602 C-133.81580109 31.66230248 -127.34385398 31.67660485 -120.86889648 31.64355469 C-118.6712689 31.64049213 -116.47355584 31.65319756 -114.27612305 31.68261719 C-100.18497003 31.85867657 -91.74490228 31.65358485 -81.2902832 21.57641602 C-78.41601054 19.65493263 -75.42335158 18.0363797 -72.3527832 16.45141602 C-71.55412842 16.03746582 -70.75547363 15.62351562 -69.93261719 15.19702148 C-64.05373007 12.25159128 -58.07512527 9.82063221 -51.8527832 7.70141602 C-51.09296143 7.4395752 -50.33313965 7.17773438 -49.55029297 6.90795898 C-33.22119209 1.68760253 -17.08512813 -0.10494714 0 0 Z M-174.2902832 35.57641602 C-175.64932619 39.61977993 -175.75675734 42.55461553 -173.9777832 46.45141602 C-171.69651614 49.55568071 -171.69651614 49.55568071 -168.30200195 50.94750977 C-163.98745948 51.07078241 -161.91017236 51.01550417 -158.2902832 48.45141602 C-156.04576705 45.22492404 -155.2902832 43.5008003 -155.2902832 39.57641602 C-156.81902191 35.60169538 -157.71808817 33.95787937 -161.2902832 31.57641602 C-166.94664013 31.02902664 -170.44331207 30.9134207 -174.2902832 35.57641602 Z M-235.2277832 101.63891602 C-237.72237414 105.19181826 -238.36644034 107.23545907 -238.2902832 111.57641602 C-235.86596901 116.298775 -235.86596901 116.298775 -231.2902832 118.57641602 C-225.95732888 118.91990702 -225.95732888 118.91990702 -221.2902832 116.57641602 C-221.2902832 115.91641602 -221.2902832 115.25641602 -221.2902832 114.57641602 C-220.6302832 114.57641602 -219.9702832 114.57641602 -219.2902832 114.57641602 C-218.14675405 112.2893577 -218.18693881 110.9837684 -218.2277832 108.45141602 C-218.2484082 107.17266602 -218.2690332 105.89391602 -218.2902832 104.57641602 C-218.9502832 104.57641602 -219.6102832 104.57641602 -220.2902832 104.57641602 C-220.7234082 103.61735352 -220.7234082 103.61735352 -221.1652832 102.63891602 C-222.11851771 100.42435522 -222.11851771 100.42435522 -224.2902832 99.57641602 C-230.16666134 98.95859561 -230.16666134 98.95859561 -235.2277832 101.63891602 Z M-225.2902832 230.57641602 C-227.33154554 232.20456574 -228.18106579 233.09039852 -228.7590332 235.66235352 C-228.81685716 239.89795848 -228.68998554 241.99503079 -226.2277832 245.57641602 C-222.71098826 247.97082959 -220.53801656 248.57641602 -216.2902832 248.57641602 C-213.38128224 247.34817116 -211.82475628 246.31449788 -209.9777832 243.76391602 C-208.72464684 239.77666394 -208.84856571 236.71968483 -210.3527832 232.82641602 C-214.57076293 227.92811698 -219.74453099 227.92957973 -225.2902832 230.57641602 Z M-157.2902832 295.57641602 C-159.60169924 298.42716246 -160.2902832 299.89036111 -160.2902832 303.57641602 C-159.01113234 307.41386861 -157.47449251 309.09980878 -154.2902832 311.57641602 C-150.94001836 312.62337378 -148.99678662 312.75714945 -145.6027832 311.88891602 C-142.85443274 310.32904143 -141.71049222 309.41683405 -140.2902832 306.57641602 C-139.91148168 303.10521661 -139.69527823 299.76642596 -141.2902832 296.57641602 C-141.9502832 296.57641602 -142.6102832 296.57641602 -143.2902832 296.57641602 C-143.6202832 295.58641602 -143.9502832 294.59641602 -144.2902832 293.57641602 C-151.2789219 292.18623268 -151.2789219 292.18623268 -157.2902832 295.57641602 Z " fill="#058FF6" transform="translate(335.290283203125,52.423583984375)"/>
<path d="M0 0 C2.72517562 2.30643491 5.37276224 4.68933757 7.99511719 7.11157227 C8.84460938 7.89016602 9.69410156 8.66875977 10.56933594 9.47094727 C25.2418375 23.52067712 35.28523112 43.37081591 36.10351562 63.82055664 C36.16510904 66.85579947 36.18071384 69.88822853 36.18261719 72.92407227 C36.19486328 73.94049805 36.20710937 74.95692383 36.21972656 76.00415039 C36.24786306 90.71954095 32.27389899 103.88605315 25.99511719 117.11157227 C25.33511719 117.11157227 24.67511719 117.11157227 23.99511719 117.11157227 C23.90746094 117.66071289 23.81980469 118.20985352 23.72949219 118.77563477 C22.14201274 123.82517044 18.17188997 127.9480746 14.99511719 132.11157227 C14.25261719 133.10930664 14.25261719 133.10930664 13.49511719 134.12719727 C11.17507558 137.11425084 9.71562096 138.44719659 5.99511719 139.11157227 C5.66511719 140.10157227 5.33511719 141.09157227 4.99511719 142.11157227 C4.33511719 142.11157227 3.67511719 142.11157227 2.99511719 142.11157227 C2.99511719 142.77157227 2.99511719 143.43157227 2.99511719 144.11157227 C-1.70210714 147.81315607 -6.58168147 150.6208395 -11.94238281 153.23657227 C-12.60689453 153.57043945 -13.27140625 153.90430664 -13.95605469 154.24829102 C-34.21703037 164.27069412 -57.20060629 165.99368195 -79.00488281 160.11157227 C-83.14440638 158.69191324 -87.07051347 157.02182876 -91.00488281 155.11157227 C-92.01550781 154.65782227 -93.02613281 154.20407227 -94.06738281 153.73657227 C-116.3963391 141.38438368 -132.57572016 123.13239249 -140.07519531 98.65063477 C-142.30878554 90.14797615 -143.3655304 82.22799969 -143.31738281 73.42407227 C-143.31319336 72.3733252 -143.30900391 71.32257813 -143.3046875 70.23999023 C-143.00682526 49.60827669 -135.73634138 28.16154885 -121.00488281 13.11157227 C-120.34488281 13.11157227 -119.68488281 13.11157227 -119.00488281 13.11157227 C-118.67488281 12.12157227 -118.34488281 11.13157227 -118.00488281 10.11157227 C-117.34488281 10.11157227 -116.68488281 10.11157227 -116.00488281 10.11157227 C-115.34488281 8.79157227 -114.68488281 7.47157227 -114.00488281 6.11157227 C-113.34488281 6.11157227 -112.68488281 6.11157227 -112.00488281 6.11157227 C-111.67488281 5.12157227 -111.34488281 4.13157227 -111.00488281 3.11157227 C-110.01488281 3.11157227 -109.02488281 3.11157227 -108.00488281 3.11157227 C-107.67423828 2.22791992 -107.67423828 2.22791992 -107.33691406 1.32641602 C-102.58130752 -6.58100014 -89.28414674 -10.01756609 -81.00488281 -12.88842773 C-80.03421875 -13.2403418 -79.06355469 -13.59225586 -78.06347656 -13.95483398 C-52.92959378 -21.62660663 -20.50395689 -16.71801806 0 0 Z M-83.00488281 33.11157227 C-83.00488281 33.77157227 -83.00488281 34.43157227 -83.00488281 35.11157227 C-83.87113281 35.45188477 -83.87113281 35.45188477 -84.75488281 35.79907227 C-87.58862176 37.45208665 -89.03632394 39.5079944 -91.00488281 42.11157227 C-91.47667969 42.54211914 -91.94847656 42.97266602 -92.43457031 43.41625977 C-100.93579414 52.59419793 -102.56162332 65.23171493 -102.25097656 77.13891602 C-101.41179221 90.68574914 -94.87024998 101.91278396 -85.00488281 111.11157227 C-84.34488281 111.11157227 -83.68488281 111.11157227 -83.00488281 111.11157227 C-83.00488281 111.77157227 -83.00488281 112.43157227 -83.00488281 113.11157227 C-69.00726505 120.65495706 -55.81382834 124.70648725 -39.71191406 121.06469727 C-29.62676282 117.51379264 -17.9754676 110.82680618 -13.00488281 101.11157227 C-12.61558594 100.44125977 -12.22628906 99.77094727 -11.82519531 99.08032227 C-6.80187808 90.40098126 -4.43746632 83.39020829 -4.50488281 73.36157227 C-4.50987793 72.38873291 -4.51487305 71.41589355 -4.52001953 70.41357422 C-4.7050685 62.77360441 -6.02037739 56.72459959 -10.00488281 50.11157227 C-10.49730469 49.27368164 -10.98972656 48.43579102 -11.49707031 47.57250977 C-18.35701206 36.6605817 -28.31808273 29.17664931 -40.62207031 25.28344727 C-56.52740968 21.72634261 -69.143131 25.6414063 -83.00488281 33.11157227 Z " fill="#76AB19" transform="translate(393.0048828125,142.888427734375)"/>
<path d="M0 0 C1.25 1.4296875 1.25 1.4296875 1.25 3.4296875 C1.91 3.4296875 2.57 3.4296875 3.25 3.4296875 C3.91 5.0796875 4.57 6.7296875 5.25 8.4296875 C5.96691356 8.43115406 6.68382711 8.43262062 7.42246532 8.43413162 C24.86581409 8.47118177 42.30895034 8.53017255 59.75213909 8.61359024 C68.18754585 8.65340125 76.62285904 8.68578322 85.05834961 8.70068359 C92.41065486 8.71368948 99.7627544 8.74062675 107.1149438 8.78430057 C111.0079968 8.80693955 114.90079585 8.82259674 118.79392052 8.82157135 C122.45893592 8.82082616 126.12338947 8.83871942 129.78825951 8.87085533 C131.77323891 8.88342451 133.75831252 8.87627931 135.74331665 8.86854553 C136.92817154 8.88245834 138.11302643 8.89637115 139.33378601 8.91070557 C140.36158519 8.91439274 141.38938437 8.91807991 142.44832897 8.92187881 C145.99157184 9.56409893 147.69043514 10.94481132 150.25 13.4296875 C151.11952921 16.49734333 150.87951229 19.31646307 150.25 22.4296875 C148.05168636 25.46184425 146.80036806 26.24623148 143.25 27.4296875 C141.38547361 27.53210827 139.51752236 27.57603386 137.65022278 27.58790588 C136.48494553 27.5976947 135.31966827 27.60748352 134.11907959 27.61756897 C132.8394635 27.62332443 131.55984741 27.6290799 130.24145508 27.63500977 C128.88142093 27.64458917 127.52138975 27.65459929 126.16136169 27.66500854 C122.46746129 27.69205697 118.77354811 27.71306687 115.07960343 27.73301053 C111.21984924 27.75487046 107.36013442 27.78225912 103.50041199 27.80906677 C96.19067778 27.85899356 88.88092173 27.90393245 81.57114476 27.94708914 C73.24956306 27.99646162 64.92802087 28.05137971 56.60647738 28.10676873 C39.4876881 28.22058857 22.36886215 28.32742761 5.25 28.4296875 C4.79657227 29.36844727 4.34314453 30.30720703 3.87597656 31.27441406 C0.82574906 37.19350418 -3.98821354 42.10190555 -10 44.9921875 C-21.52315876 46.33655602 -30.16000797 45.8785398 -39.5625 38.7421875 C-44.45988739 34.14092121 -46.46844815 29.43397366 -47.09375 22.76171875 C-47.34665235 12.08713225 -45.92052864 6.10590401 -38.63671875 -1.7734375 C-27.12108084 -12.7407117 -10.95905927 -9.83379872 0 0 Z M-27.75 11.4296875 C-30.00210196 14.60125415 -30.00210196 14.60125415 -30.75 18.4296875 C-29.7033718 22.12366939 -28.56970927 24.52215223 -26 27.3671875 C-22.65314086 28.94764876 -20.41018158 28.93454013 -16.75 28.4296875 C-13.15475664 26.66978436 -13.15475664 26.66978436 -10.75 23.4296875 C-10.01702295 20.28516 -10.04834081 17.5783094 -10.75 14.4296875 C-12.83713847 11.62284611 -14.83176389 10.37517824 -17.75 8.4296875 C-22.22919547 8.4296875 -24.04071438 8.98313741 -27.75 11.4296875 Z " fill="#0A91F4" transform="translate(70.75,206.5703125)"/>
<path d="M0 0 C3.30608059 2.87764682 6.34643846 5.55663888 8.17236328 9.58911133 C9.82081922 12.32688363 9.82081922 12.32688363 13.09448242 12.56762695 C14.95617065 12.52835083 14.95617065 12.52835083 16.85546875 12.48828125 C17.51710526 12.48120651 18.17874176 12.47413177 18.86042786 12.46684265 C20.97060985 12.43888507 23.0781226 12.37615847 25.1875 12.3125 C26.61910225 12.28741824 28.05074617 12.26460483 29.48242188 12.24414062 C32.9891465 12.18905847 36.49431271 12.10278289 40 12 C39.505 13.485 39.505 13.485 39 15 C29.1 15 19.2 15 9 15 C9 15.99 9 16.98 9 18 C9.66 18 10.32 18 11 18 C11 21.63 11 25.26 11 29 C12.68593262 28.98952637 14.37186523 28.97905273 16.10888672 28.96826172 C21.67285808 28.93604018 27.23681605 28.9130435 32.80085564 28.89637566 C36.17506994 28.88592858 39.54918352 28.87175275 42.92333984 28.84912109 C46.80048318 28.82495115 50.67748277 28.81353489 54.5546875 28.8046875 C55.76929657 28.79436493 56.98390564 28.78404236 58.23532104 28.77340698 C59.35633209 28.77325592 60.47734314 28.77310486 61.63232422 28.77294922 C62.62271698 28.768508 63.61310974 28.76406677 64.6335144 28.75949097 C67 29 67 29 69 31 C69.99 31.185625 69.99 31.185625 71 31.375 C73 32 73 32 74.25 34.0625 C74.4975 34.701875 74.745 35.34125 75 36 C69.25 34.125 69.25 34.125 67 33 C65.18281916 32.88042526 63.36142165 32.8227532 61.54052734 32.79467773 C60.39949554 32.77473251 59.25846375 32.75478729 58.08285522 32.73423767 C56.84637238 32.71752518 55.60988953 32.70081268 54.3359375 32.68359375 C53.07359283 32.66281265 51.81124817 32.64203156 50.51065063 32.62062073 C47.15367955 32.56622074 43.79669811 32.51599764 40.43963623 32.46777344 C37.01438935 32.41754958 33.58923171 32.36186814 30.1640625 32.30664062 C23.44277939 32.19938141 16.72142956 32.0976256 10 32 C9.70577148 32.77649902 9.41154297 33.55299805 9.10839844 34.35302734 C6.77043765 39.93632488 2.11634474 44.42504578 -2.6875 48 C-10.72187915 50.42547295 -19.08895953 50.91459386 -27 48 C-32.97729413 44.60114648 -39.48453769 39.47679937 -41.765625 32.73828125 C-43.47310476 24.18711245 -43.45018024 15.67289251 -38.78125 7.99609375 C-35.41102415 3.12898567 -32.31762623 0.56033856 -27 -2 C-26.319375 -2.391875 -25.63875 -2.78375 -24.9375 -3.1875 C-17.05276873 -6.49400021 -7.02906726 -4.63279433 0 0 Z M-23 16 C-25.31141604 18.85074644 -26 20.3139451 -26 24 C-24.72084913 27.8374526 -23.18420931 29.52339276 -20 32 C-16.64973516 33.04695776 -14.70650341 33.18073343 -11.3125 32.3125 C-8.56414954 30.75262542 -7.42020902 29.84041803 -6 27 C-5.62119848 23.52880059 -5.40499503 20.19000995 -7 17 C-7.66 17 -8.32 17 -9 17 C-9.33 16.01 -9.66 15.02 -10 14 C-16.98863869 12.60981666 -16.98863869 12.60981666 -23 16 Z " fill="#0E93F6" transform="translate(201,332)"/>
<path d="M0 0 C4.62283511 2.65384979 8.30472435 6.6719487 10.6875 11.4375 C12.06488027 26.67585898 12.06488027 26.67585898 8.125 32.1875 C3.20469502 37.45676278 -2.42399491 40.13838422 -9.5625 40.6875 C-15.43527942 40.29598137 -19.65597236 38.87315729 -24.125 35 C-29.35189537 28.87706542 -30.6260033 25.02278069 -30.53125 16.96875 C-30.03551227 11.23235625 -27.3671322 6.4921322 -23.3125 2.4375 C-16.40877261 -2.56852033 -7.84032031 -3.46293306 0 0 Z " fill="#0B91F4" transform="translate(349.3125,196.5625)"/>
<path d="M0 0 C29.7 0.495 29.7 0.495 60 1 C60 1.66 60 2.32 60 3 C40.86 3 21.72 3 2 3 C1.34 4.65 0.68 6.3 0 8 C-1.69140625 10.23828125 -1.69140625 10.23828125 -3.5625 12.3125 C-4.18253906 13.00988281 -4.80257812 13.70726562 -5.44140625 14.42578125 C-5.95574219 14.94527344 -6.47007812 15.46476562 -7 16 C-7.33 16 -7.66 16 -8 16 C-8.25 13.75 -8.25 13.75 -8 11 C-6 8.6875 -6 8.6875 -4 7 C-3.34 7.33 -2.68 7.66 -2 8 C-1.7834375 6.576875 -1.7834375 6.576875 -1.5625 5.125 C-1 2 -1 2 0 0 Z " fill="#57ACEA" transform="translate(140,297)"/>
<path d="M0 0 C9.49289916 -0.09295656 18.98564002 -0.16389446 28.47889614 -0.20724869 C32.88770642 -0.22806369 37.29620376 -0.25626894 41.70483398 -0.30175781 C45.96479909 -0.3454343 50.22446445 -0.36918283 54.48463631 -0.37950897 C56.10444922 -0.38686144 57.72424698 -0.40121867 59.3439312 -0.42292023 C68.05726581 -0.53495252 75.22367472 -0.4745804 83 4 C83 4.99 83 5.98 83 7 C82.00528183 6.35125916 81.01056366 5.70251831 79.98570251 5.03411865 C76.11463439 2.83365669 72.6317987 2.42179049 68.22875977 2.45410156 C67.48646622 2.44376389 66.74417267 2.43342621 65.97938538 2.42277527 C63.54983332 2.39350867 61.12112017 2.3918516 58.69140625 2.390625 C56.99745612 2.37563235 55.30352056 2.35890293 53.60960388 2.34051514 C49.16927391 2.29695085 44.72914111 2.27686689 40.28863525 2.26177979 C35.75024816 2.24216916 31.21207276 2.20020366 26.67382812 2.16015625 C17.78261756 2.08497261 8.89145465 2.03460956 0 2 C0 1.34 0 0.68 0 0 Z " fill="#85C8EF" transform="translate(141,281)"/>
<path d="M0 0 C7.5276878 -0.0462929 15.05536088 -0.08185365 22.58315849 -0.10362434 C26.07843927 -0.11407198 29.57362283 -0.12824883 33.06884766 -0.15087891 C37.08497056 -0.17671953 41.10099097 -0.18646466 45.1171875 -0.1953125 C47.00472244 -0.21079636 47.00472244 -0.21079636 48.9303894 -0.22659302 C50.09144196 -0.22674408 51.25249451 -0.22689514 52.44873047 -0.22705078 C53.47465302 -0.231492 54.50057556 -0.23593323 55.55758667 -0.24050903 C58 0 58 0 60 2 C60.66 2.12375 61.32 2.2475 62 2.375 C64 3 64 3 65.25 5.0625 C65.4975 5.701875 65.745 6.34125 66 7 C60.36577933 5.20729342 60.36577933 5.20729342 58.14654541 3.94961548 C55.45314278 2.7580745 53.34780369 2.72091627 50.40527344 2.68115234 C49.28441345 2.66128265 48.16355347 2.64141296 47.00872803 2.62094116 C45.20229828 2.60361435 45.20229828 2.60361435 43.359375 2.5859375 C41.50339691 2.55688828 41.50339691 2.55688828 39.60992432 2.5272522 C36.32861429 2.47762011 33.04733888 2.43633933 29.76586914 2.39910889 C26.41411724 2.35902344 23.06255655 2.30778775 19.7109375 2.2578125 C13.14073391 2.16175507 6.57045645 2.07670723 0 2 C0 1.34 0 0.68 0 0 Z " fill="#248EDA" transform="translate(210,361)"/>
<path d="M0 0 C0.66 0.33 1.32 0.66 2 1 C-1.625 7.75 -1.625 7.75 -5 10 C-5.33 10.99 -5.66 11.98 -6 13 C-6.99 13.495 -6.99 13.495 -8 14 C-9.0541518 17.16245541 -9.31275672 19.86948218 -9.5625 23.1875 C-9.64628906 24.27417969 -9.73007813 25.36085938 -9.81640625 26.48046875 C-9.87699219 27.31191406 -9.93757813 28.14335937 -10 29 C-9.34 29 -8.68 29 -8 29 C-6.50178941 32.37097383 -6 34.20442119 -6 38 C-5.34 38 -4.68 38 -4 38 C-4 38.66 -4 39.32 -4 40 C-3.09507813 40.13728516 -3.09507813 40.13728516 -2.171875 40.27734375 C0.53257263 41.17720492 1.2082314 42.20702019 2.75 44.5625 C3.39195313 45.52349609 3.39195313 45.52349609 4.046875 46.50390625 C4.36140625 46.99761719 4.6759375 47.49132812 5 48 C-1.33219103 46.76445053 -4.47311264 43.10672794 -8 38 C-11.56418792 31.58237131 -13.13249442 25.30458899 -12 18 C-9.84045438 10.45260843 -6.60736104 4.48356642 0 0 Z " fill="#5CB0E9" transform="translate(101,268)"/>
<path d="M0 0 C1.06538498 -0.00191345 2.13076996 -0.0038269 3.22843933 -0.00579834 C5.46471393 -0.00715169 7.70099662 -0.00351507 9.93725586 0.00488281 C13.36264534 0.01564755 16.78751671 0.00493125 20.21289062 -0.0078125 C22.39192824 -0.00649179 24.57096553 -0.00393124 26.75 0 C27.77293655 -0.00404846 28.79587311 -0.00809692 29.84980774 -0.01226807 C30.80147324 -0.00596375 31.75313873 0.00034058 32.73364258 0.00683594 C33.98531975 0.00922272 33.98531975 0.00922272 35.26228333 0.01165771 C37.54296875 0.265625 37.54296875 0.265625 41.54296875 2.265625 C23.72296875 2.265625 5.90296875 2.265625 -12.45703125 2.265625 C-12.45703125 2.925625 -12.45703125 3.585625 -12.45703125 4.265625 C-16.41703125 4.265625 -20.37703125 4.265625 -24.45703125 4.265625 C-16.51726882 0.29574378 -8.76382404 -0.03503107 0 0 Z " fill="#2093E6" transform="translate(325.45703125,52.734375)"/>
<path d="M0 0 C2.27113803 0.14100857 4.54190725 0.28796755 6.8125 0.4375 C8.07707031 0.51871094 9.34164063 0.59992188 10.64453125 0.68359375 C14 1 14 1 17 2 C19.46418236 2.23818469 21.90491137 2.42503715 24.375 2.5625 C25.11016846 2.6042334 25.84533691 2.6459668 26.6027832 2.68896484 C32.79697804 3.00476502 38.9858189 3.107032 45.1875 3.125 C46.07163574 3.12959229 46.95577148 3.13418457 47.86669922 3.13891602 C52.3738799 3.12813329 56.55496258 2.81933201 61 2 C62.62394748 1.9379225 64.25005297 1.91287959 65.875 1.9375 C67.04675781 1.95103516 67.04675781 1.95103516 68.2421875 1.96484375 C68.82226562 1.97644531 69.40234375 1.98804688 70 2 C67.08342624 3.9443825 66.15973803 4.29984905 62.859375 4.6328125 C61.63613525 4.75897949 61.63613525 4.75897949 60.38818359 4.88769531 C59.08228271 5.00516113 59.08228271 5.00516113 57.75 5.125 C56.84975098 5.2084668 55.94950195 5.29193359 55.02197266 5.37792969 C36.30152384 7.00752996 18.24310956 5.39946372 0 1 C0 0.67 0 0.34 0 0 Z " fill="#3EAEE7" transform="translate(297,376)"/>
<path d="M0 0 C3.5219721 -0.08004482 6.61981469 -0.04005702 10 1 C10 1.66 10 2.32 10 3 C10.69867188 3.06058594 11.39734375 3.12117187 12.1171875 3.18359375 C13.02726562 3.26738281 13.93734375 3.35117188 14.875 3.4375 C15.77992187 3.51871094 16.68484375 3.59992188 17.6171875 3.68359375 C20 4 20 4 22 5 C22 5.99 22 6.98 22 8 C21.29875 7.649375 20.5975 7.29875 19.875 6.9375 C15.33339727 5.45654259 11.49484316 6.86903946 7 8 C4.93594971 14.02466678 4.93594971 14.02466678 6.375 20 C6.91125 20.99 7.4475 21.98 8 23 C7.01 23 6.02 23 5 23 C2.79086 19.68629 2.77518447 18.6553979 2.875 14.8125 C2.89304688 13.91144531 2.91109375 13.01039063 2.9296875 12.08203125 C2.95289063 11.39496094 2.97609375 10.70789063 3 10 C3.66 10 4.32 10 5 10 C4.67 8.02 4.34 6.04 4 4 C2.68 3.67 1.36 3.34 0 3 C0 2.01 0 1.02 0 0 Z " fill="#279BF2" transform="translate(36,210)"/>
<path d="M0 0 C15.18 0 30.36 0 46 0 C46 0.99 46 1.98 46 3 C41.53834423 3.05016131 37.07684626 3.08607179 32.61499023 3.10986328 C31.10324233 3.11980161 29.59151301 3.13335698 28.07983398 3.15087891 C18.48523174 3.25914856 9.45403666 2.8319455 0 1 C0 0.67 0 0.34 0 0 Z " fill="#078CED" transform="translate(132,153)"/>
<path d="M0 0 C3.9846253 3.57112645 6.64568538 7.77798118 9.5 12.25 C9.97308594 12.97574219 10.44617188 13.70148438 10.93359375 14.44921875 C13.21597662 17.99607966 15.40356682 21.58399674 17.40625 25.296875 C17.73947266 25.91401367 18.07269531 26.53115234 18.41601562 27.16699219 C19.1438173 29.45141315 18.75867218 30.76228776 18 33 C17.67 32.01 17.34 31.02 17 30 C16.34 29.731875 15.68 29.46375 15 29.1875 C14.34 28.795625 13.68 28.40375 13 28 C12.375 24.9375 12.375 24.9375 12 22 C11.34 21.67 10.68 21.34 10 21 C10 19.68 10 18.36 10 17 C9.34 17 8.68 17 8 17 C8 16.34 8 15.68 8 15 C7.34 15 6.68 15 6 15 C6 13.02 6 11.04 6 9 C4.68 9.33 3.36 9.66 2 10 C1.33333333 6.66666667 0.66666667 3.33333333 0 0 Z " fill="#44A6EA" transform="translate(502,146)"/>
<path d="M0 0 C0.86963379 0.16298584 1.73926758 0.32597168 2.63525391 0.49389648 C5.77223578 0.96574117 8.66904654 1.11468255 11.8359375 1.09765625 C13.43115234 1.09282227 13.43115234 1.09282227 15.05859375 1.08789062 C16.15300781 1.07951172 17.24742187 1.07113281 18.375 1.0625 C19.49261719 1.05798828 20.61023438 1.05347656 21.76171875 1.04882812 C24.50786804 1.03709244 27.25390586 1.02067363 30 1 C30.1875 3.35546875 30.1875 3.35546875 30 6 C27 8.3125 27 8.3125 24 10 C24 9.01 24 8.02 24 7 C24.66 7 25.32 7 26 7 C26.33 6.01 26.66 5.02 27 4 C18.75 4 10.5 4 2 4 C1.01 5.98 0.02 7.96 -1 10 C-2.46726798 6.18510326 -1.43336419 3.70988378 0 0 Z " fill="#1B8EE3" transform="translate(194,99)"/>
<path d="M0 0 C1.11568359 -0.00386719 2.23136719 -0.00773437 3.38085938 -0.01171875 C21.94753482 0.01003482 21.94753482 0.01003482 25.0625 3.125 C22.39376244 4.08574552 20.79660734 4.08637279 17.94506836 3.67211914 C13.77039233 3.08383712 9.71195196 2.90219738 5.50390625 2.80859375 C4.71475327 2.78781265 3.92560028 2.76703156 3.11253357 2.74562073 C0.61676891 2.68076695 -1.87909178 2.62154195 -4.375 2.5625 C-6.07748348 2.51925358 -7.77995762 2.47563744 -9.48242188 2.43164062 C-13.63401873 2.32515237 -17.78571118 2.22370853 -21.9375 2.125 C-21.9375 1.795 -21.9375 1.465 -21.9375 1.125 C-14.59655507 0.14620734 -7.40080929 -0.02556411 0 0 Z " fill="#3299E3" transform="translate(338.9375,80.875)"/>
<path d="M0 0 C0.495 1.485 0.495 1.485 1 3 C-0.3921875 3.61875 -0.3921875 3.61875 -1.8125 4.25 C-5.02889455 5.69692913 -5.02889455 5.69692913 -6.3910675 8.08099365 C-8 10 -8 10 -10.25895691 10.48101807 C-11.1405397 10.47213562 -12.0221225 10.46325317 -12.93041992 10.45410156 C-13.93123093 10.45379944 -14.93204193 10.45349731 -15.96318054 10.45318604 C-17.04138565 10.43254089 -18.11959076 10.41189575 -19.23046875 10.390625 C-20.33602615 10.38496521 -21.44158356 10.37930542 -22.5806427 10.37347412 C-26.11669964 10.35105795 -29.65174859 10.30084996 -33.1875 10.25 C-35.58266767 10.22994187 -37.97785121 10.21168991 -40.37304688 10.1953125 C-46.24904267 10.151176 -52.12444933 10.08421128 -58 10 C-58 9.67 -58 9.34 -58 9 C-57.43560715 9.00523682 -56.87121429 9.01047363 -56.28971863 9.01586914 C-50.3670722 9.06288519 -44.44635749 9.05331547 -38.52368164 9.01220703 C-36.31926064 9.00414109 -34.11473904 9.01006987 -31.91040039 9.03076172 C-15.42652726 9.53247011 -15.42652726 9.53247011 -1.5559082 1.71484375 C-1.0424585 1.14894531 -0.52900879 0.58304687 0 0 Z " fill="#63B7F5" transform="translate(253,75)"/>
<path d="M0 0 C0.66 0.33 1.32 0.66 2 1 C4.56845219 1.03037021 7.120762 0.93311185 9.6875 0.83984375 C12 1 12 1 14 3 C12.948125 2.938125 11.89625 2.87625 10.8125 2.8125 C6.77539551 3.01104612 5.11637422 3.50690063 2 6 C0.08952688 8.51835094 -0.01039491 9.7557197 0.125 12.9375 C1.1166926 16.4084241 2.58632361 18.35274202 5 21 C2.6875 20.8125 2.6875 20.8125 0 20 C-2.99179956 16.38920743 -3.32120156 13.60388896 -3 9 C-2.34 9 -1.68 9 -1 9 C-1.66 6.69 -2.32 4.38 -3 2 C-2.01 1.34 -1.02 0.68 0 0 Z " fill="#37A2EB" transform="translate(176,343)"/>
<path d="M0 0 C0.66 1.32 1.32 2.64 2 4 C1.57847656 4.44730469 1.15695312 4.89460937 0.72265625 5.35546875 C-2.48619148 8.8965266 -4.34643704 11.16363408 -5 16 C-6.4375 18.3125 -6.4375 18.3125 -8 20 C-8.66 20 -9.32 20 -10 20 C-10.33 21.98 -10.66 23.96 -11 26 C-11.66 26 -12.32 26 -13 26 C-11.48172735 16.51079596 -5.90941235 7.48402066 0 0 Z " fill="#8EB44B" transform="translate(268,161)"/>
<path d="M0 0 C0.99 0.33 1.98 0.66 3 1 C3 3.31 3 5.62 3 8 C3.99 8.33 4.98 8.66 6 9 C6 12 6 12 4.5625 13.5625 C4.046875 14.036875 3.53125 14.51125 3 15 C2.67 15.66 2.34 16.32 2 17 C1.34 16.34 0.68 15.68 0 15 C-3.05270463 14.84188612 -3.05270463 14.84188612 -6 16 C-8.33299825 16.03954234 -10.66708189 16.04401732 -13 16 C-13 15.67 -13 15.34 -13 15 C-12.22914063 14.90203125 -11.45828125 14.8040625 -10.6640625 14.703125 C-9.66117188 14.55359375 -8.65828125 14.4040625 -7.625 14.25 C-6.62726563 14.11078125 -5.62953125 13.9715625 -4.6015625 13.828125 C-1.91968057 13.25046046 -1.91968057 13.25046046 -0.65625 11.21875 C0.0669289 8.77371657 0.19985385 6.79503083 0.125 4.25 C0.09792969 3.05117188 0.09792969 3.05117188 0.0703125 1.828125 C0.04710937 1.22484375 0.02390625 0.6215625 0 0 Z " fill="#1793EB" transform="translate(194,350)"/>
<path d="M0 0 C2.64 0 5.28 0 8 0 C7.67 0.66 7.34 1.32 7 2 C6.34 2 5.68 2 5 2 C5 2.66 5 3.32 5 4 C3.390625 5.5859375 3.390625 5.5859375 1.25 7.375 C-1.6243732 9.81617866 -4.38543992 12.27649992 -7 15 C-7.63175608 9.81960013 -6.25817319 7.33121642 -3.2890625 3.3203125 C-2.86367187 2.88460937 -2.43828125 2.44890625 -2 2 C-1.34 2 -0.68 2 0 2 C0 1.34 0 0.68 0 0 Z " fill="#1B94ED" transform="translate(234,123)"/>
<path d="M0 0 C0 0.33 0 0.66 0 1 C-1.45635371 1.22174933 -2.91522956 1.42698698 -4.375 1.625 C-5.18710937 1.74101562 -5.99921875 1.85703125 -6.8359375 1.9765625 C-7.55007813 1.98429688 -8.26421875 1.99203125 -9 2 C-9.66 1.34 -10.32 0.68 -11 0 C-14.56922376 -0.95315153 -18.05681516 -1.17859736 -21.73828125 -1.31640625 C-22.80498047 -1.35830078 -23.87167969 -1.40019531 -24.97070312 -1.44335938 C-26.07349609 -1.48267578 -27.17628906 -1.52199219 -28.3125 -1.5625 C-29.99569336 -1.62727539 -29.99569336 -1.62727539 -31.71289062 -1.69335938 C-34.47514569 -1.79914787 -37.2374863 -1.90123672 -40 -2 C-40 -2.33 -40 -2.66 -40 -3 C-26.99652342 -5.41520739 -12.44994067 -4.52379523 0 0 Z " fill="#96B258" transform="translate(367,130)"/>
<path d="M0 0 C1.32 0 2.64 0 4 0 C5.01532144 4.62535321 5.0485889 8.36873235 4 13 C1.95929752 15.95901859 -0.59169846 17.01537955 -4 18 C-6.69212002 18.15512216 -9.29891626 18.09156216 -12 18 C-12 17.34 -12 16.68 -12 16 C-12.66 16 -13.32 16 -14 16 C-13.67 15.34 -13.34 14.68 -13 14 C-12.34 14.33 -11.68 14.66 -11 15 C-7.06702181 15.37103568 -4.63529963 15.31089131 -1.0625 13.5625 C1.60184432 10.25225403 1.45181302 8.15351687 1.2734375 4.0234375 C1.10228073 1.93505689 1.10228073 1.93505689 0 0 Z " fill="#369DE5" transform="translate(58,219)"/>
<path d="M0 0 C1.32 0.33 2.64 0.66 4 1 C1.03286076 6.93427849 -3.29758322 9.50764277 -9.375 11.75 C-14.31389857 13.27414576 -19.35874379 14.20729925 -24.23046875 11.98046875 C-24.81441406 11.65691406 -25.39835938 11.33335938 -26 11 C-24.64455078 10.94392578 -24.64455078 10.94392578 -23.26171875 10.88671875 C-22.08222656 10.82097656 -20.90273437 10.75523438 -19.6875 10.6875 C-17.92986328 10.60048828 -17.92986328 10.60048828 -16.13671875 10.51171875 C-12.74332825 9.95812703 -12.18196239 9.44171981 -10 7 C-6.3125 6.8125 -6.3125 6.8125 -3 7 C-3 6.34 -3 5.68 -3 5 C-2.01 5 -1.02 5 0 5 C0 3.35 0 1.7 0 0 Z " fill="#43A8ED" transform="translate(188,108)"/>
<path d="M0 0 C3.51439033 2.74627508 4.6466127 6.64236491 6.125 10.6875 C6.38925781 11.37005859 6.65351563 12.05261719 6.92578125 12.75585938 C8.69793617 17.51908796 9.53425147 21.9392446 10 27 C6.67042052 24.40019136 6.38238288 21.88935445 5.8125 17.8125 C5.65394531 16.72582031 5.49539063 15.63914063 5.33203125 14.51953125 C5.16767578 13.27236328 5.16767578 13.27236328 5 12 C3.35 12 1.7 12 0 12 C-0.95585284 8.2827945 -0.90395705 5.71626787 0 2 C0 1.34 0 0.68 0 0 Z " fill="#81AF31" transform="translate(418,173)"/>
<path d="M0 0 C0.495 1.485 0.495 1.485 1 3 C0.26136719 2.855625 -0.47726562 2.71125 -1.23828125 2.5625 C-11.72448005 0.64380543 -21.44662482 0.71802818 -32 2 C-32 1.34 -32 0.68 -32 0 C-21.73041371 -2.70633803 -10.09025818 -3.8076446 0 0 Z " fill="#8FB24B" transform="translate(356,167)"/>
<path d="M0 0 C0.66 0 1.32 0 2 0 C0.51131293 4.60139641 -1.74629855 7.50227094 -5 11 C-5.66 11 -6.32 11 -7 11 C-7.433125 11.8971875 -7.433125 11.8971875 -7.875 12.8125 C-9 15 -9 15 -11 18 C-11.99 18 -12.98 18 -14 18 C-14 18.66 -14 19.32 -14 20 C-14.66 20 -15.32 20 -16 20 C-14.32538115 16.0798695 -11.71110116 12.98782939 -9 9.75 C-8.54882812 9.19570312 -8.09765625 8.64140625 -7.6328125 8.0703125 C-6.46926971 6.67268418 -5.23905262 5.33114437 -4 4 C-3.34 4 -2.68 4 -2 4 C-1.34 2.68 -0.68 1.36 0 0 Z " fill="#339CE9" transform="translate(208,117)"/>
<path d="M0 0 C-0.90621094 0.49628906 -1.81242187 0.99257812 -2.74609375 1.50390625 C-9.30397391 5.1447692 -15.46099738 8.80951787 -21.23046875 13.65234375 C-23 15 -23 15 -26 16 C-26 15.34 -26 14.68 -26 14 C-25.34 14 -24.68 14 -24 14 C-24 13.01 -24 12.02 -24 11 C-22.68 11 -21.36 11 -20 11 C-19.67 10.01 -19.34 9.02 -19 8 C-18.01 8 -17.02 8 -16 8 C-16 7.01 -16 6.02 -16 5 C-14.35 4.67 -12.7 4.34 -11 4 C-10.67 3.01 -10.34 2.02 -10 1 C-3.84210526 -1.28070175 -3.84210526 -1.28070175 0 0 Z " fill="#48ABE9" transform="translate(276,100)"/>
<path d="M0 0 C0.33 0.99 0.66 1.98 1 3 C2.91666667 4.16666667 2.91666667 4.16666667 5 5 C5.66 5.33 6.32 5.66 7 6 C7 6.66 7 7.32 7 8 C7.99 8.33 8.98 8.66 10 9 C10 9.66 10 10.32 10 11 C10.31478446 12.33783393 10.64587656 13.67203709 11 15 C12.65 15 14.3 15 16 15 C16 15.99 16 16.98 16 18 C9.04663502 16.05952605 4.97041533 12.59772723 0.9375 6.75 C-0.31056825 4.42027261 -0.39248041 2.59037069 0 0 Z " fill="#37A0EC" transform="translate(160,362)"/>
<path d="M0 0 C2.9673003 1.17176299 5.91624819 2.38100968 8.85546875 3.62109375 C16.46777612 6.82024098 23.98441859 9.93209816 32 12 C32 12.33 32 12.66 32 13 C27.60006116 13.16922842 24.85237188 13.04657256 21 11 C18.67504723 10.61250787 16.34148732 10.27017161 14 10 C14 9.34 14 8.68 14 8 C13.01 8 12.02 8 11 8 C11 7.34 11 6.68 11 6 C9.68 6 8.36 6 7 6 C7 5.34 7 4.68 7 4 C4.03 3.505 4.03 3.505 1 3 C0.67 2.01 0.34 1.02 0 0 Z " fill="#5CB3E8" transform="translate(277,335)"/>
<path d="M0 0 C7.00638018 0.35031901 13.65574795 3.21932782 20 6 C20 6.66 20 7.32 20 8 C22.97 8.495 22.97 8.495 26 9 C25.67 9.66 25.34 10.32 25 11 C18.56839539 8.92880529 12.29262658 6.58764103 6.015625 4.0859375 C3.33126421 3.11928944 0.80811182 2.46801864 -2 2 C-1.34 1.34 -0.68 0.68 0 0 Z " fill="#43A3E7" transform="translate(380,87)"/>
<path d="M0 0 C3.43624953 1.29311496 5.20508485 2.569639 8 5 C7.01 5.495 7.01 5.495 6 6 C4.48986328 5.29617187 4.48986328 5.29617187 2.94921875 4.578125 C-1.44446865 2.5798564 -5.42808324 2.62444243 -10.1875 2.75 C-10.98091797 2.75515625 -11.77433594 2.7603125 -12.59179688 2.765625 C-16.24312291 2.81467724 -19.46693045 3.01329134 -23 4 C-17.28118297 -1.97876325 -7.82560484 -0.93661352 0 0 Z " fill="#53A7E2" transform="translate(179,67)"/>
<path d="M0 0 C0.33 0.66 0.66 1.32 1 2 C-0.07421875 4.57421875 -0.07421875 4.57421875 -1.6875 7.6875 C-2.24050781 8.75871094 -2.79351563 9.82992187 -3.36328125 10.93359375 C-5.17746136 14.33247535 -7.04011172 17.68326599 -9 21 C-9.98120464 17.94736336 -9.98120464 16.05263664 -9 13 C-9.66 13 -10.32 13 -11 13 C-11 12.34 -11 11.68 -11 11 C-9.02 10.67 -7.04 10.34 -5 10 C-4.34 7.69 -3.68 5.38 -3 3 C-2.34 3 -1.68 3 -1 3 C-0.67 2.01 -0.34 1.02 0 0 Z " fill="#319EEC" transform="translate(524,242)"/>
<path d="M0 0 C0.66 0.33 1.32 0.66 2 1 C-6.32152585 5.99291551 -12.26538213 7.77248822 -22 6 C-24.50399638 5.17972532 -26.64485903 4.20373872 -29 3 C-26.13822943 1.56911472 -24.06624227 2.40008303 -21 3 C-21 3.66 -21 4.32 -21 5 C-11.97724526 3.90975613 -11.97724526 3.90975613 -3.3125 1.3125 C-1.6728125 0.6628125 -1.6728125 0.6628125 0 0 Z " fill="#5EB2E9" transform="translate(122,182)"/>
<path d="M0 0 C5.54342746 5.54342746 6.94642452 14.43246393 7 22 C6.5625 25.125 6.5625 25.125 6 27 C5.67 27 5.34 27 5 27 C4.67 22.38 4.34 17.76 4 13 C3.34 13 2.68 13 2 13 C0.24252386 8.49646738 -0.19294408 4.82360189 0 0 Z " fill="#40A0E5" transform="translate(529,194)"/>
<path d="M0 0 C0.66 0 1.32 0 2 0 C1.83886719 0.99515625 1.67773438 1.9903125 1.51171875 3.015625 C0.04498709 13.34764628 0.5960756 23.86917576 3 34 C2.01 33.67 1.02 33.34 0 33 C-0.73675902 29.04147498 -1.1280587 25.29429904 -1.1328125 21.26953125 C-1.13410156 20.21958984 -1.13539063 19.16964844 -1.13671875 18.08789062 C-1.13285156 17.00701172 -1.12898438 15.92613281 -1.125 14.8125 C-1.12886719 13.72001953 -1.13273437 12.62753906 -1.13671875 11.50195312 C-1.13542969 10.45587891 -1.13414062 9.40980469 -1.1328125 8.33203125 C-1.13168457 7.38046143 -1.13055664 6.4288916 -1.12939453 5.44848633 C-1 3 -1 3 0 0 Z " fill="#B2CC80" transform="translate(291,201)"/>
<path d="M0 0 C0.83595703 0.01353516 1.67191406 0.02707031 2.53320312 0.04101562 C4.58491498 0.07618783 6.63629275 0.12998952 8.6875 0.1875 C8.6875 0.5175 8.6875 0.8475 8.6875 1.1875 C0.7675 1.6825 0.7675 1.6825 -7.3125 2.1875 C-7.3125 2.8475 -7.3125 3.5075 -7.3125 4.1875 C-8.570625 4.455625 -9.82875 4.72375 -11.125 5 C-14.30698801 5.78282537 -16.31494311 6.44085928 -18.3125 9.1875 C-18.9725 8.8575 -19.6325 8.5275 -20.3125 8.1875 C-16.11328125 4.57421875 -16.11328125 4.57421875 -14.3125 3.1875 C-13.61125 2.6409375 -12.91 2.094375 -12.1875 1.53125 C-8.09567874 -0.38123168 -4.45307257 -0.13707169 0 0 Z " fill="#4EA4E2" transform="translate(107.3125,134.8125)"/>
<path d="M0 0 C5.72173843 -0.18457221 10.65323904 0.24878818 16.2265625 1.48828125 C21.43325034 2.44895182 26.72104466 2.68557946 32 3 C32 3.33 32 3.66 32 4 C17.90745778 5.4463913 17.90745778 5.4463913 11 3 C9.96875 3 8.9375 3 7.875 3 C4.76665505 3 2.78952985 2.31271993 0 1 C0 0.67 0 0.34 0 0 Z " fill="#2E9DE5" transform="translate(304,348)"/>
<path d="M0 0 C0.33 0 0.66 0 1 0 C1.05899621 3.77076545 1.09392568 7.54140926 1.125 11.3125 C1.14175781 12.36501953 1.15851563 13.41753906 1.17578125 14.50195312 C1.2808689 31.57869665 1.2808689 31.57869665 -3 38 C-3 35.36 -3 32.72 -3 30 C-2.34 30 -1.68 30 -1 30 C-1.33 26.7 -1.66 23.4 -2 20 C-1.34 20 -0.68 20 0 20 C0 13.4 0 6.8 0 0 Z " fill="#86AA3F" transform="translate(428,204)"/>
<path d="M0 0 C3.875 3.75 3.875 3.75 5 6 C14.9 6 24.8 6 35 6 C34.67 6.66 34.34 7.32 34 8 C29.80084693 8.09907258 25.60231748 8.17156173 21.40234375 8.21972656 C19.97448879 8.23980982 18.54671575 8.26708252 17.11914062 8.30175781 C15.06359632 8.35042669 13.00914145 8.37299967 10.953125 8.390625 C9.71723633 8.41157227 8.48134766 8.43251953 7.20800781 8.45410156 C4 8 4 8 1.56542969 6.22558594 C0 4 0 4 0 0 Z " fill="#4EA0D5" transform="translate(206,338)"/>
<path d="M0 0 C0 0.66 0 1.32 0 2 C-0.66 2 -1.32 2 -2 2 C-2 2.66 -2 3.32 -2 4 C-6.01434472 7.79132557 -8.86033656 8.26303703 -14.375 8.25 C-16.25076302 8.1861054 -18.12632538 8.10914609 -20 8 C-16.86893463 5.91262309 -13.95619741 4.75455434 -10.4375 3.4375 C-1.28783383 0 -1.28783383 0 0 0 Z " fill="#43A7EA" transform="translate(398,335)"/>
<path d="M0 0 C1.9375 0.6875 1.9375 0.6875 4 2 C4.75 4.625 4.75 4.625 5 7 C5.99 7.33 6.98 7.66 8 8 C8.33 9.65 8.66 11.3 9 13 C9.66 13 10.32 13 11 13 C11.33 14.32 11.66 15.64 12 17 C6.00412681 13.35544963 2.66217131 9.55114966 0 3 C0 2.01 0 1.02 0 0 Z " fill="#4CA9E7" transform="translate(144,100)"/>
<path d="M0 0 C4.18659858 3.82774727 7.37820862 7.94607874 10 13 C10 13.66 10 14.32 10 15 C9.34 15 8.68 15 8 15 C7.67 14.34 7.34 13.68 7 13 C6.01 13 5.02 13 4 13 C4 12.01 4 11.02 4 10 C2.68 9.34 1.36 8.68 0 8 C0.2784375 7.13375 0.2784375 7.13375 0.5625 6.25 C1.04023546 3.79307475 0.75729364 2.35602466 0 0 Z " fill="#8CB445" transform="translate(408,158)"/>
<path d="M0 0 C2.37570543 -0.0816082 4.74855841 -0.14077222 7.125 -0.1875 C7.79015625 -0.21263672 8.4553125 -0.23777344 9.140625 -0.26367188 C13.86902292 -0.33320714 16.95121479 0.59721625 21 3 C21 3.33 21 3.66 21 4 C18 5 15 6 12 7 C11.67 5.35 11.34 3.7 11 2 C7.37 1.67 3.74 1.34 0 1 C0 0.67 0 0.34 0 0 Z " fill="#2699ED" transform="translate(103,136)"/>
<path d="M0 0 C0.33 0 0.66 0 1 0 C1 1.98 1 3.96 1 6 C0.030625 6.474375 -0.93875 6.94875 -1.9375 7.4375 C-4.80477437 8.70193947 -4.80477437 8.70193947 -6 10 C-7.68608966 10.07205511 -9.37500659 10.08386068 -11.0625 10.0625 C-11.98160156 10.05347656 -12.90070313 10.04445313 -13.84765625 10.03515625 C-14.55792969 10.02355469 -15.26820313 10.01195313 -16 10 C-16.66 8.35 -17.32 6.7 -18 5 C-16.515 5.99 -16.515 5.99 -15 7 C-11.95511673 7.48224671 -9.04794939 7.45829674 -6 7 C-3.19315861 4.91286153 -1.94549074 2.91823611 0 0 Z " fill="#3B9FE3" transform="translate(180,95)"/>
<path d="M0 0 C7.99189522 0.75395238 16.67790118 1.7118893 23 7 C14.43405811 6.81451701 7.71643408 4.64948279 0 1 C0 0.67 0 0.34 0 0 Z " fill="#54ACE7" transform="translate(376,57)"/>
<path d="M0 0 C0.66 0 1.32 0 2 0 C2 0.99 2 1.98 2 3 C-2.22857143 7 -2.22857143 7 -6 7 C-6 7.66 -6 8.32 -6 9 C-10.43076923 11.09230769 -10.43076923 11.09230769 -13.3125 10.625 C-13.869375 10.41875 -14.42625 10.2125 -15 10 C-12.21946371 7.21946371 -8.94485773 5.9770392 -5.41015625 4.31640625 C-3.14275874 3.07797357 -1.7813994 1.82394028 0 0 Z " fill="#9BBC59" transform="translate(372,252)"/>
<path d="M0 0 C3.54734889 0.66305587 6.18009165 2.13292124 9.25 4 C10.14203125 4.53625 11.0340625 5.0725 11.953125 5.625 C12.96632813 6.305625 12.96632813 6.305625 14 7 C14 7.33 14 7.66 14 8 C10.27185071 7.93037412 6.657472 7.75523021 3 7 C0.77172852 4.51706892 0 3.31243235 0 0 Z " fill="#8AB443" transform="translate(378,135)"/>
<path d="M0 0 C0.33 0.99 0.66 1.98 1 3 C-0.3125 5.1875 -0.3125 5.1875 -2 7 C-2.66 7 -3.32 7 -4 7 C-4.66 8.65 -5.32 10.3 -6 12 C-6.99 12 -7.98 12 -9 12 C-9 12.66 -9 13.32 -9 14 C-10.32 13.67 -11.64 13.34 -13 13 C-12.36191406 12.44570313 -11.72382813 11.89140625 -11.06640625 11.3203125 C-10.24011719 10.59585937 -9.41382813 9.87140625 -8.5625 9.125 C-7.73878906 8.40570313 -6.91507812 7.68640625 -6.06640625 6.9453125 C-3.94017845 5.16761255 -3.94017845 5.16761255 -3 3 C-2.34 3 -1.68 3 -1 3 C-0.67 2.01 -0.34 1.02 0 0 Z " fill="#309CE2" transform="translate(455,292)"/>
<path d="M0 0 C0.86560547 0.00902344 1.73121094 0.01804688 2.62304688 0.02734375 C4.72798779 0.05060277 6.83278342 0.08645992 8.9375 0.125 C8.9375 0.455 8.9375 0.785 8.9375 1.125 C-0.9625 1.62 -0.9625 1.62 -11.0625 2.125 C-11.0625 2.785 -11.0625 3.445 -11.0625 4.125 C-15.0225 4.125 -18.9825 4.125 -23.0625 4.125 C-15.54316039 0.3653302 -8.30747643 -0.16756741 0 0 Z " fill="#4BA4E2" transform="translate(324.0625,52.875)"/>
<path d="M0 0 C4.18726294 -0.11679952 8.37410301 -0.18745327 12.5625 -0.25 C14.33463867 -0.30027344 14.33463867 -0.30027344 16.14257812 -0.3515625 C23.01033687 -0.42851218 27.42894118 -0.15579718 33 4 C32.67 4.66 32.34 5.32 32 6 C30.66775391 5.03320312 30.66775391 5.03320312 29.30859375 4.046875 C23.91986322 0.96760041 18.1183775 1.3257415 12.0625 1.25 C10.90169922 1.22035156 9.74089844 1.19070313 8.54492188 1.16015625 C5.6965462 1.08982599 2.84897163 1.03694586 0 1 C0 0.67 0 0.34 0 0 Z " fill="#208BD7" transform="translate(192,282)"/>
<path d="M0 0 C0.66 0.33 1.32 0.66 2 1 C-1.625 7.75 -1.625 7.75 -5 10 C-5.33 10.99 -5.66 11.98 -6 13 C-6.66 13 -7.32 13 -8 13 C-8.38730126 9.61111395 -8.17469717 8.26204576 -6.25 5.375 C-4.27282826 3.28798539 -2.37223421 1.60973036 0 0 Z " fill="#37A3EB" transform="translate(101,268)"/>
<path d="M0 0 C1.32 0.33 2.64 0.66 4 1 C3.36191406 1.69867188 2.72382813 2.39734375 2.06640625 3.1171875 C1.24011719 4.02726562 0.41382813 4.93734375 -0.4375 5.875 C-1.26121094 6.77992188 -2.08492188 7.68484375 -2.93359375 8.6171875 C-5.00907942 10.81137927 -5.00907942 10.81137927 -6 13 C-6.66 13 -7.32 13 -8 13 C-8 11.02 -8 9.04 -8 7 C-6.35 7 -4.7 7 -3 7 C-2.690625 6.21625 -2.38125 5.4325 -2.0625 4.625 C-1 2 -1 2 0 0 Z " fill="#8FB448" transform="translate(409,268)"/>
<path d="M0 0 C-0.99 1.485 -0.99 1.485 -2 3 C-2.969375 2.979375 -3.93875 2.95875 -4.9375 2.9375 C-5.948125 2.958125 -6.95875 2.97875 -8 3 C-8.7115625 3.99 -8.7115625 3.99 -9.4375 5 C-9.953125 5.66 -10.46875 6.32 -11 7 C-14.6875 7.25 -14.6875 7.25 -18 7 C-15.54234547 4.18652343 -12.93721011 2.80685406 -9.5625 1.25 C-8.61503906 0.80140625 -7.66757812 0.3528125 -6.69140625 -0.109375 C-3.87551411 -1.04119417 -2.71771213 -1.05367562 0 0 Z " fill="#9ABA5B" transform="translate(312,132)"/>
<path d="M0 0 C-3 2 -3 2 -7 2 C-7 3.32 -7 4.64 -7 6 C-12.94 5.01 -12.94 5.01 -19 4 C-15.53312056 2.26656028 -12.65812813 1.25764097 -8.9375 0.3125 C-7.89464844 0.04050781 -6.85179687 -0.23148437 -5.77734375 -0.51171875 C-3 -1 -3 -1 0 0 Z " fill="#4CABEB" transform="translate(378,344)"/>
<path d="M0 0 C0.66 0.33 1.32 0.66 2 1 C1.34 2.98 0.68 4.96 0 7 C-1.216875 6.67 -2.43375 6.34 -3.6875 6 C-6.87210604 5.19677787 -9.6972843 4.79358027 -13 5 C-13 4.34 -13 3.68 -13 3 C-12.22914062 2.95101563 -11.45828125 2.90203125 -10.6640625 2.8515625 C-9.66117187 2.77679688 -8.65828125 2.70203125 -7.625 2.625 C-6.62726563 2.55539062 -5.62953125 2.48578125 -4.6015625 2.4140625 C-1.84491121 2.23636036 -1.84491121 2.23636036 0 0 Z " fill="#40A6EA" transform="translate(124,277)"/>
<path d="M0 0 C0.6875 1.6875 0.6875 1.6875 1 4 C-0.25 6.4375 -0.25 6.4375 -2 9 C-2.474375 9.9075 -2.94875 10.815 -3.4375 11.75 C-5 14 -5 14 -7.1875 14.8125 C-7.785625 14.874375 -8.38375 14.93625 -9 15 C-7.47165554 11.83256147 -5.74923498 8.82612306 -3.9375 5.8125 C-3.41027344 4.93207031 -2.88304687 4.05164063 -2.33984375 3.14453125 C-1 1 -1 1 0 0 Z " fill="#4AA9E9" transform="translate(486,251)"/>
<path d="M0 0 C2.89168064 2.88598835 4.27251682 4.93926601 4.390625 8.98828125 C4.36428842 10.430209 4.3169454 11.8718864 4.25 13.3125 C4.23195313 14.05306641 4.21390625 14.79363281 4.1953125 15.55664062 C4.14847337 17.3716571 4.07673789 19.18600166 4 21 C3.34 21.33 2.68 21.66 2 22 C2.02320313 21.20335937 2.04640625 20.40671875 2.0703125 19.5859375 C2.16672555 13.92511424 2.12994782 9.32486955 0 4 C0 2.68 0 1.36 0 0 Z " fill="#64B0E5" transform="translate(356,203)"/>
<path d="M0 0 C1.32 0 2.64 0 4 0 C4.34018596 5.66976598 4.47849002 10.20208273 1 15 C-1.6875 15.875 -1.6875 15.875 -4 16 C-2.625 14 -2.625 14 -1 12 C-0.34 12 0.32 12 1 12 C1.33 8.7 1.66 5.4 2 2 C1.34 2 0.68 2 0 2 C0 1.34 0 0.68 0 0 Z " fill="#3F9EE4" transform="translate(115,155)"/>
<path d="M0 0 C-0.33 0.66 -0.66 1.32 -1 2 C-1.56847656 1.97679687 -2.13695312 1.95359375 -2.72265625 1.9296875 C-7.89054666 1.80890208 -12.03814481 2.37785503 -17 4 C-18.66246041 4.35371498 -20.32774271 4.69595322 -22 5 C-20.40065885 1.8013177 -17.21058719 1.13431903 -14 0 C-9.03999873 -1.2663833 -4.99036173 -0.77436647 0 0 Z " fill="#55AAE4" transform="translate(192,328)"/>
<path d="M0 0 C1.32 0.33 2.64 0.66 4 1 C4 1.66 4 2.32 4 3 C5.65 3 7.3 3 9 3 C8.01 4.485 8.01 4.485 7 6 C6.60986284 7.9896995 6.26797351 9.99019869 6 12 C3.25207517 8.59780735 0 4.51535412 0 0 Z " fill="#41A6EF" transform="translate(495,191)"/>
<path d="M0 0 C0.33 0 0.66 0 1 0 C1.103125 0.99 1.20625 1.98 1.3125 3 C1.90808706 7.28297163 3.38595027 10.99996371 5 15 C5.66 15 6.32 15 7 15 C7 16.65 7 18.3 7 20 C6.34 20.33 5.68 20.66 5 21 C1.09368028 13.67792164 -0.14041547 8.28451302 0 0 Z " fill="#42A7EC" transform="translate(80,157)"/>
<path d="M0 0 C4.77609498 1.64178265 8.79382904 4.26546702 13 7 C12.01 7.66 11.02 8.32 10 9 C10 8.34 10 7.68 10 7 C9.1028125 7.2784375 9.1028125 7.2784375 8.1875 7.5625 C6 8 6 8 3 7 C1.62665383 4.71108972 0.84749184 2.54247553 0 0 Z " fill="#45A4E6" transform="translate(264,327)"/>
<path d="M0 0 C0.804375 0.515625 1.60875 1.03125 2.4375 1.5625 C6.99671435 3.40218298 10.26344042 2.8736321 15 2 C14 5 14 5 12 6 C4.77669903 6.58252427 4.77669903 6.58252427 1.5 4.125 C0 2 0 2 0 0 Z " fill="#49A6E7" transform="translate(108,297)"/>
<path d="M0 0 C-2.11167268 3.16750903 -3.07234966 3.73950385 -6.6484375 4.66015625 C-11.72623259 5.39399042 -16.88395143 5.13847951 -22 5 C-22 4.67 -22 4.34 -22 4 C-20.89591797 3.94392578 -20.89591797 3.94392578 -19.76953125 3.88671875 C-12.56331372 3.40122721 -6.9518681 -0.48501405 0 0 Z " fill="#55ABE9" transform="translate(66,247)"/>
<path d="M0 0 C0.33 0.66 0.66 1.32 1 2 C0.67 2.66 0.34 3.32 0 4 C-0.66 4 -1.32 4 -2 4 C-2 4.66 -2 5.32 -2 6 C-2.99 6.495 -2.99 6.495 -4 7 C-4.72693904 8.97888961 -5.39816251 10.97954558 -6 13 C-6.66 13 -7.32 13 -8 13 C-8.33 13.66 -8.66 14.32 -9 15 C-9.42496538 10.56147273 -8.42534646 8.65613569 -5.625 5.25 C-4.99851563 4.47140625 -4.37203125 3.6928125 -3.7265625 2.890625 C-2 1 -2 1 0 0 Z " fill="#48A5E6" transform="translate(169,333)"/>
<path d="M0 0 C0.66 0.33 1.32 0.66 2 1 C0.5682479 6.01113235 -1.98445693 7.94469549 -6 11 C-6.25 8.75 -6.25 8.75 -6 6 C-4 3.6875 -4 3.6875 -2 2 C-1.34 2.33 -0.68 2.66 0 3 C0 2.01 0 1.02 0 0 Z " fill="#2D9DEB" transform="translate(138,302)"/>
<path d="M0 0 C0.33 0 0.66 0 1 0 C1.66 2.64 2.32 5.28 3 8 C2.01 8.33 1.02 8.66 0 9 C-1.22445284 10.62948064 -1.22445284 10.62948064 -2.1875 12.5625 C-2.785625 13.696875 -3.38375 14.83125 -4 16 C-4.66 16 -5.32 16 -6 16 C-5.71382813 15.29488281 -5.42765625 14.58976563 -5.1328125 13.86328125 C-3.99523169 10.98794768 -2.92607644 8.09547814 -1.875 5.1875 C-1.34519531 3.72376953 -1.34519531 3.72376953 -0.8046875 2.23046875 C-0.53914063 1.49441406 -0.27359375 0.75835937 0 0 Z " fill="#98BC58" transform="translate(387,227)"/>
<path d="M0 0 C0.99 0.33 1.98 0.66 3 1 C2.50886719 1.37769531 2.01773438 1.75539063 1.51171875 2.14453125 C-0.57897883 4.71063292 -0.30262202 6.42570933 -0.1875 9.6875 C-0.16042969 10.68136719 -0.13335937 11.67523438 -0.10546875 12.69921875 C-0.05326172 13.83810547 -0.05326172 13.83810547 0 15 C-0.99 14.67 -1.98 14.34 -3 14 C-3.02708567 12.39592672 -3.04643483 10.7917215 -3.0625 9.1875 C-3.07410156 8.29417969 -3.08570312 7.40085937 -3.09765625 6.48046875 C-3 4 -3 4 -2 1 C-1.34 0.67 -0.68 0.34 0 0 Z " fill="#4AA6E8" transform="translate(108,282)"/>
<path d="M0 0 C3.28788824 3.11016455 5.83735988 6.01618925 8 10 C6.35 9.67 4.7 9.34 3 9 C3 8.34 3 7.68 3 7 C2.01 6.67 1.02 6.34 0 6 C0 4.02 0 2.04 0 0 Z " fill="#91B64C" transform="translate(297,241)"/>
<path d="M0 0 C0.33 0.66 0.66 1.32 1 2 C0.06553465 4.03144641 -0.93224776 6.03533587 -2 8 C-2.66 8 -3.32 8 -4 8 C-4 8.99 -4 9.98 -4 11 C-5.65 11.66 -7.3 12.32 -9 13 C-6.38888348 8.16459904 -3.62542917 4.12896099 0 0 Z " fill="#4EA9E9" transform="translate(191,137)"/>
<path d="M0 0 C0.99 0.33 1.98 0.66 3 1 C2.34 1 1.68 1 1 1 C0.67 1.99 0.34 2.98 0 4 C-0.66 4 -1.32 4 -2 4 C-2 4.66 -2 5.32 -2 6 C-5.62326739 7.2077558 -6.64146369 6.54311128 -10 5 C-9.34 4.01 -8.68 3.02 -8 2 C-5.03 2.495 -5.03 2.495 -2 3 C-2 2.34 -2 1.68 -2 1 C-1.34 0.67 -0.68 0.34 0 0 Z " fill="#86AF3B" transform="translate(398,281)"/>
<path d="M0 0 C0.99 0.33 1.98 0.66 3 1 C2.67 6.28 2.34 11.56 2 17 C0.68 16.34 -0.64 15.68 -2 15 C-1.67 14.46375 -1.34 13.9275 -1 13.375 C0.78507385 9.13544961 0.12201089 5.32775628 -1 1 C-0.67 0.67 -0.34 0.34 0 0 Z " fill="#49AAF1" transform="translate(125,283)"/>
<path d="M0 0 C1.8125 0.0625 1.8125 0.0625 4 1 C5.01529541 3.32671865 6.01488198 5.6603447 7 8 C9.0351761 9.4818964 9.0351761 9.4818964 11 10 C10.34 10 9.68 10 9 10 C9 10.66 9 11.32 9 12 C7 12 7 12 5.0625 10.375 C2.46999532 7.38969158 0 4.08215635 0 0 Z " fill="#4AA8E8" transform="translate(25,234)"/>
<path d="M0 0 C1.70884005 1.62339805 3.37446717 3.29319053 5 5 C5 5.66 5 6.32 5 7 C5.66 7 6.32 7 7 7 C7 7.66 7 8.32 7 9 C4.69 8.67 2.38 8.34 0 8 C0 5.36 0 2.72 0 0 Z " fill="#38A4F0" transform="translate(225,288)"/>
<path d="M0 0 C0 0.33 0 0.66 0 1 C-1.3921875 1.1546875 -1.3921875 1.1546875 -2.8125 1.3125 C-5.97651157 1.68406137 -5.97651157 1.68406137 -7.5 3.5625 C-9 5 -9 5 -12.1875 5.1875 C-13.5796875 5.0946875 -13.5796875 5.0946875 -15 5 C-14.67 4.01 -14.34 3.02 -14 2 C-9.24983365 -0.2012966 -5.11918146 -0.1765235 0 0 Z " fill="#88AE3B" transform="translate(326,128)"/>
<path d="M0 0 C-5.35689638 2.67844819 -9.00286732 3.49156825 -15 3 C-17.23828125 1.98046875 -17.23828125 1.98046875 -19 1 C-18.08476562 0.93941406 -17.16953125 0.87882812 -16.2265625 0.81640625 C-14.44378906 0.69072266 -14.44378906 0.69072266 -12.625 0.5625 C-11.44164062 0.48128906 -10.25828125 0.40007812 -9.0390625 0.31640625 C-1.54580153 -0.46374046 -1.54580153 -0.46374046 0 0 Z " fill="#5CB2EA" transform="translate(181,118)"/>
<path d="M0 0 C2.97 0.495 2.97 0.495 6 1 C6 1.66 6 2.32 6 3 C8.97 3.495 8.97 3.495 12 4 C12.33 5.65 12.66 7.3 13 9 C12.48050781 8.67386719 11.96101563 8.34773438 11.42578125 8.01171875 C10.72839844 7.57472656 10.03101563 7.13773437 9.3125 6.6875 C8.22388672 6.00494141 8.22388672 6.00494141 7.11328125 5.30859375 C5.42471929 4.26299623 3.71553441 3.25072841 2 2.25 C1.34 1.8375 0.68 1.425 0 1 C0 0.67 0 0.34 0 0 Z " fill="#55AFE9" transform="translate(418,105)"/>
<path d="M0 0 C2.97 0 5.94 0 9 0 C5.54465326 2.94720751 2.26220709 5.36766537 -2 7 C-4.375 6.1875 -4.375 6.1875 -6 5 C-4.35 5 -2.7 5 -1 5 C-0.67 3.35 -0.34 1.7 0 0 Z " fill="#5AB2EF" transform="translate(417,356)"/>
<path d="M0 0 C0.33 0 0.66 0 1 0 C1.19536944 4.20044297 1.05270449 7.28558235 -1 11 C-3.625 13.3125 -3.625 13.3125 -6 15 C-4.64475824 9.57903298 -2.63365987 4.9221313 0 0 Z " fill="#57B0EA" transform="translate(503,217)"/>
<path d="M0 0 C2.10544013 0.28232721 4.20933589 0.5761898 6.3125 0.875 C7.48425781 1.03742188 8.65601563 1.19984375 9.86328125 1.3671875 C13 2 13 2 16 4 C14.54364629 4.22174933 13.08477044 4.42698698 11.625 4.625 C10.81289063 4.74101562 10.00078125 4.85703125 9.1640625 4.9765625 C8.44992187 4.98429688 7.73578125 4.99203125 7 5 C6.34 4.34 5.68 3.68 5 3 C2.42938689 2.35232207 2.42938689 2.35232207 0 2 C0 1.34 0 0.68 0 0 Z " fill="#8CAF44" transform="translate(351,127)"/>
<path d="M0 0 C1 3 1 3 1.3125 5.875 C2.10984938 9.49931537 3.52657683 11.28721329 6 14 C3.6875 13.8125 3.6875 13.8125 1 13 C-1.99179956 9.38920743 -2.32120156 6.60388896 -2 2 C-1.34 2 -0.68 2 0 2 C0 1.34 0 0.68 0 0 Z " fill="#4DA7E7" transform="translate(175,350)"/>
<path d="M0 0 C0.99 0.495 0.99 0.495 2 1 C2 1.99 2 2.98 2 4 C4.31 4 6.62 4 9 4 C8 7 8 7 6 8 C5.01 9.485 5.01 9.485 4 11 C1.52214277 7.33708062 0.51035831 4.3890815 0 0 Z " fill="#8AB241" transform="translate(255,245)"/>
<path d="M0 0 C0 0.33 0 0.66 0 1 C-1.16917969 1.06058594 -2.33835937 1.12117187 -3.54296875 1.18359375 C-5.09115614 1.26804034 -6.63933268 1.35268625 -8.1875 1.4375 C-8.95642578 1.47681641 -9.72535156 1.51613281 -10.51757812 1.55664062 C-14.43251075 1.77507034 -18.17120688 2.08692108 -22 3 C-20.09611504 0.26316537 -18.81773215 -0.0390574 -15.5 -0.75 C-10.29774197 -1.24499097 -5.16922529 -0.6176464 0 0 Z " fill="#4BA6E4" transform="translate(60,199)"/>
<path d="M0 0 C3.53586014 3.17320782 5.58578031 5.16743695 6 10 C5.01 10.495 5.01 10.495 4 11 C4 10.01 4 9.02 4 8 C2.68 7.34 1.36 6.68 0 6 C0 4.02 0 2.04 0 0 Z " fill="#34A0EA" transform="translate(515,168)"/>
<path d="M0 0 C2.9375 0.75 2.9375 0.75 6 2 C6.875 4.125 6.875 4.125 7 6 C8.65 6 10.3 6 12 6 C12 6.99 12 7.98 12 9 C7.5053662 7.74568359 4.40851589 6.21374355 1 3 C0.67 2.01 0.34 1.02 0 0 Z " fill="#43ABE8" transform="translate(164,371)"/>
<path d="M0 0 C2.5843218 2.5843218 3.10401163 4.89375577 4.1875 8.375 C4.55230469 9.51710937 4.91710937 10.65921875 5.29296875 11.8359375 C5.95860385 14.81474653 6.07938697 16.20871903 5 19 C2.93421237 15.90131855 2.25308642 13.65023694 1.375 10.0625 C1.11460937 9.02222656 0.85421875 7.98195312 0.5859375 6.91015625 C0 4 0 4 0 0 Z " fill="#95B654" transform="translate(422,181)"/>
<path d="M0 0 C-2.38957269 3.24299151 -4.2047869 5.50902342 -8 7 C-8.33 5.02 -8.66 3.04 -9 1 C-5.8035914 -0.06546953 -3.34252724 -0.07427838 0 0 Z " fill="#39A2ED" transform="translate(250,116)"/>
<path d="M0 0 C0.33 0.99 0.66 1.98 1 3 C0.071875 3.4125 -0.85625 3.825 -1.8125 4.25 C-4.9497766 5.97242637 -5.97185371 7.19922655 -8 10 C-8.99 10 -9.98 10 -11 10 C-9.73459948 6.20379845 -8.21781569 5.51321812 -4.9375 3.3125 C-4.01839844 2.68988281 -3.09929687 2.06726563 -2.15234375 1.42578125 C-1.44207031 0.95527344 -0.73179687 0.48476562 0 0 Z " fill="#53ACEB" transform="translate(253,75)"/>
<path d="M0 0 C0.99 0.33 1.98 0.66 3 1 C3.33 3.97 3.66 6.94 4 10 C2.02 10.99 0.04 11.98 -2 13 C-1.67257813 12.43796875 -1.34515625 11.8759375 -1.0078125 11.296875 C0.11785494 8.73140036 0.2068111 7.03157723 0.125 4.25 C0.10695312 3.45078125 0.08890625 2.6515625 0.0703125 1.828125 C0.04710937 1.22484375 0.02390625 0.6215625 0 0 Z " fill="#46A3E9" transform="translate(194,350)"/>
<path d="M0 0 C1.32 0.33 2.64 0.66 4 1 C4 1.99 4 2.98 4 4 C5.32 4.66 6.64 5.32 8 6 C8 6.99 8 7.98 8 9 C7.67 8.34 7.34 7.68 7 7 C4.47266765 6.34444881 4.47266765 6.34444881 2 6 C1.34 4.02 0.68 2.04 0 0 Z " fill="#3EA0E8" transform="translate(235,302)"/>
<path d="M0 0 C0.66 0.66 1.32 1.32 2 2 C1.67 2.66 1.34 3.32 1 4 C3.475 4.99 3.475 4.99 6 6 C6 6.66 6 7.32 6 8 C1.76570244 6.68938409 -2.07407404 5.05643741 -6 3 C-6 2.67 -6 2.34 -6 2 C-4.02 1.34 -2.04 0.68 0 0 Z " fill="#9CBD61" transform="translate(363,168)"/>
<path d="M0 0 C3.36016893 1.12005631 4.69064913 2.37211797 7 5 C7 5.66 7 6.32 7 7 C7.99 7.33 8.98 7.66 10 8 C9.67 8.66 9.34 9.32 9 10 C4.24352332 8.50259067 4.24352332 8.50259067 2 7 C0.5625 3.3125 0.5625 3.3125 0 0 Z " fill="#43A4EB" transform="translate(471,110)"/>
<path d="M0 0 C7.66181818 3.74181818 7.66181818 3.74181818 11 6 C11 6.66 11 7.32 11 8 C9.35 8.33 7.7 8.66 6 9 C6 7.68 6 6.36 6 5 C4.35 4.67 2.7 4.34 1 4 C0.67 2.68 0.34 1.36 0 0 Z " fill="#52ACED" transform="translate(438,83)"/>
<path d="M0 0 C-1.98 0.99 -1.98 0.99 -4 2 C-3.67 2.99 -3.34 3.98 -3 5 C-3.99 5 -4.98 5 -6 5 C-6 4.01 -6 3.02 -6 2 C-7.32 2.33 -8.64 2.66 -10 3 C-10 3.66 -10 4.32 -10 5 C-11.32 4.67 -12.64 4.34 -14 4 C-9.89239426 0.52433361 -5.34448487 -2.0555711 0 0 Z " fill="#2296E8" transform="translate(164,70)"/>
<path d="M0 0 C1.32 0 2.64 0 4 0 C4 0.66 4 1.32 4 2 C5.65 2 7.3 2 9 2 C9 2.99 9 3.98 9 5 C9.99 5 10.98 5 12 5 C11.67 5.99 11.34 6.98 11 8 C9.16399255 6.85845641 7.33125195 5.71165684 5.5 4.5625 C4.4790625 3.92441406 3.458125 3.28632813 2.40625 2.62890625 C1.6121875 2.09136719 0.818125 1.55382812 0 1 C0 0.67 0 0.34 0 0 Z " fill="#96B852" transform="translate(285,287)"/>
<path d="M0 0 C0 3.35406109 -0.41124116 3.889154 -2.375 6.4375 C-4.19954912 8.87712376 -5.76656516 11.196739 -7 14 C-8.33332095 11.3333581 -7.67102033 9.83319697 -7 7 C-6.01 7 -5.02 7 -4 7 C-3.8453125 5.824375 -3.8453125 5.824375 -3.6875 4.625 C-3 2 -3 2 0 0 Z " fill="#60B3E9" transform="translate(512,265)"/>
<path d="M0 0 C2.475 0.495 2.475 0.495 5 1 C5 1.99 5 2.98 5 4 C5.99 3.67 6.98 3.34 8 3 C10.125 7.625 10.125 7.625 9 11 C7.99406757 9.8803014 6.9954151 8.7540588 6 7.625 C5.443125 6.99851563 4.88625 6.37203125 4.3125 5.7265625 C3 4 3 4 3 2 C2.01 1.67 1.02 1.34 0 1 C0 0.67 0 0.34 0 0 Z " fill="#9ABA53" transform="translate(371,178)"/>
<path d="M0 0 C0.66 0 1.32 0 2 0 C2.33 0.99 2.66 1.98 3 3 C2.505 3.70125 2.01 4.4025 1.5 5.125 C-0.64336067 9.23310795 0.19674648 12.55791127 1 17 C0.34 17 -0.32 17 -1 17 C-3.21264666 12.57470667 -2.29045294 7.03473859 -1 2.4375 C-0.67 1.633125 -0.34 0.82875 0 0 Z " fill="#43A6E6" transform="translate(161,83)"/>
<path d="M0 0 C0.66 0.33 1.32 0.66 2 1 C1.67 1.99 1.34 2.98 1 4 C-0.32 4 -1.64 4 -3 4 C-3 4.66 -3 5.32 -3 6 C-3.99 6.66 -4.98 7.32 -6 8 C-7.32 7.67 -8.64 7.34 -10 7 C-6.7 4.69 -3.4 2.38 0 0 Z " fill="#50ABE9" transform="translate(424,319)"/>
<path d="M0 0 C1 2 1 2 -0.0625 5.5625 C-2 9 -2 9 -5.1875 9.9375 C-6.115625 9.958125 -7.04375 9.97875 -8 10 C-7.04367001 8.70684939 -6.08486149 7.41553147 -5.125 6.125 C-4.59132813 5.40570313 -4.05765625 4.68640625 -3.5078125 3.9453125 C-2 2 -2 2 0 0 Z " fill="#54AEE9" transform="translate(464,282)"/>
<path d="M0 0 C4.62 0 9.24 0 14 0 C14.33 1.98 14.66 3.96 15 6 C14.38125 5.34 13.7625 4.68 13.125 4 C8.75759279 1.20485938 5.04817939 1.64711756 0 2 C0 1.34 0 0.68 0 0 Z " fill="#53ADEC" transform="translate(164,83)"/>
<path d="M0 0 C2.31 0 4.62 0 7 0 C7.33 1.32 7.66 2.64 8 4 C6.25 4.75 6.25 4.75 4 5 C1.75 3.125 1.75 3.125 0 1 C0 0.67 0 0.34 0 0 Z " fill="#7FAC33" transform="translate(280,282)"/>
<path d="M0 0 C3.70187265 1.23395755 5.16913856 2.64438396 7.1875 5.9375 C8 8 8 8 8 12 C7.34 12 6.68 12 6 12 C5.62875 10.948125 5.62875 10.948125 5.25 9.875 C3.84047991 6.63310378 1.98757939 3.91511643 0 1 C0 0.67 0 0.34 0 0 Z " fill="#66B4ED" transform="translate(133,270)"/>
<path d="M0 0 C0.33 0 0.66 0 1 0 C0.67 2.31 0.34 4.62 0 7 C-1.32 7 -2.64 7 -4 7 C-4 7.66 -4 8.32 -4 9 C-4.66 9 -5.32 9 -6 9 C-5.67 8.01 -5.34 7.02 -5 6 C-4.34 6 -3.68 6 -3 6 C-2.87625 5.38125 -2.7525 4.7625 -2.625 4.125 C-2 2 -2 2 0 0 Z " fill="#96B750" transform="translate(380,243)"/>
<path d="M0 0 C1.32 0.33 2.64 0.66 4 1 C0.7 3.31 -2.6 5.62 -6 8 C-6.33 7.34 -6.66 6.68 -7 6 C-6.34 6 -5.68 6 -5 6 C-5 5.01 -5 4.02 -5 3 C-3.68 3 -2.36 3 -1 3 C-0.67 2.01 -0.34 1.02 0 0 Z " fill="#5FB3E8" transform="translate(257,108)"/>
<path d="M0 0 C2.64 0 5.28 0 8 0 C7.875 2.3125 7.875 2.3125 7 5 C3.9375 6.8125 3.9375 6.8125 1 8 C1.33 7.01 1.66 6.02 2 5 C2.66 5 3.32 5 4 5 C4.33 4.01 4.66 3.02 5 2 C3.35 1.67 1.7 1.34 0 1 C0 0.67 0 0.34 0 0 Z " fill="#6EBFF5" transform="translate(216,101)"/>
<path d="M0 0 C1 2 1 2 0.22265625 4.6015625 C-0.16019531 5.59929687 -0.54304688 6.59703125 -0.9375 7.625 C-1.50791016 9.12933594 -1.50791016 9.12933594 -2.08984375 10.6640625 C-2.39019531 11.43492187 -2.69054687 12.20578125 -3 13 C-4.14881789 9.04876272 -3.89779343 6.04007043 -3 2 C-2.01 1.34 -1.02 0.68 0 0 Z " fill="#8BB54C" transform="translate(424,243)"/>
<path d="M0 0 C1.9375 1.375 1.9375 1.375 2.6875 4 C2.77 4.78375 2.8525 5.5675 2.9375 6.375 C0.6275 5.385 -1.6825 4.395 -4.0625 3.375 C-4.0625 2.385 -4.0625 1.395 -4.0625 0.375 C-2.0625 -0.625 -2.0625 -0.625 0 0 Z " fill="#8EB746" transform="translate(294.0625,234.625)"/>
<path d="M0 0 C0.66 0 1.32 0 2 0 C0.50902342 3.7952131 -1.75700849 5.61042731 -5 8 C-5.66 7.67 -6.32 7.34 -7 7 C-7 5.66666667 -7 4.33333333 -7 3 C-5.02 3 -3.04 3 -1 3 C-0.67 2.01 -0.34 1.02 0 0 Z " fill="#5BB2E9" transform="translate(355,227)"/>
<path d="M0 0 C-7.83418108 4.7619532 -7.83418108 4.7619532 -12 5 C-12.66 4.34 -13.32 3.68 -14 3 C-12.04486839 2.303447 -10.08577524 1.61800435 -8.125 0.9375 C-7.03445312 0.55464844 -5.94390625 0.17179688 -4.8203125 -0.22265625 C-2 -1 -2 -1 0 0 Z " fill="#47A5E5" transform="translate(124,183)"/>
<path d="M0 0 C0.99 0.33 1.98 0.66 3 1 C0.69 4.3 -1.62 7.6 -4 11 C-5.33332095 8.3333581 -4.67102033 6.83319697 -4 4 C-2.68 3.67 -1.36 3.34 0 3 C0 2.01 0 1.02 0 0 Z " fill="#56AFEA" transform="translate(209,156)"/>
<path d="M0 0 C0.99 0.33 1.98 0.66 3 1 C3 1.66 3 2.32 3 3 C3.99 3 4.98 3 6 3 C6.12375 3.804375 6.2475 4.60875 6.375 5.4375 C6.684375 6.7059375 6.684375 6.7059375 7 8 C7.66 8.33 8.32 8.66 9 9 C8.34 9.66 7.68 10.32 7 11 C5.83051998 9.35616456 4.6644855 7.70987731 3.5 6.0625 C2.8503125 5.14597656 2.200625 4.22945312 1.53125 3.28515625 C0 1 0 1 0 0 Z " fill="#55ADEA" transform="translate(469,150)"/>
<path d="M0 0 C1.98 0.66 3.96 1.32 6 2 C5.1028125 2.309375 5.1028125 2.309375 4.1875 2.625 C1.18981233 4.50926082 0.38638224 6.81132084 -1 10 C-2.46726798 6.18510326 -1.43336419 3.70988378 0 0 Z " fill="#42A6EA" transform="translate(194,99)"/>
<path d="M0 0 C5.94 0.33 11.88 0.66 18 1 C18 1.33 18 1.66 18 2 C15.75215576 2.24942657 13.50152494 2.47383488 11.25 2.6875 C9.99703125 2.81511719 8.7440625 2.94273437 7.453125 3.07421875 C4 3 4 3 0 0 Z " fill="#188BDF" transform="translate(318,350)"/>
<path d="M0 0 C4.2742558 1.5830577 6.26531794 4.50568404 9 8 C6.03 7.505 6.03 7.505 3 7 C2.67 5.35 2.34 3.7 2 2 C1.34 2 0.68 2 0 2 C0 1.34 0 0.68 0 0 Z " fill="#58B0EA" transform="translate(246,312)"/>
<path d="M0 0 C-1.26239712 0.86658615 -2.53527501 1.71792059 -3.8125 2.5625 C-4.87404297 3.27599609 -4.87404297 3.27599609 -5.95703125 4.00390625 C-8 5 -8 5 -11 4 C-8.79299512 -0.41400976 -4.39812292 -1.42151912 0 0 Z " fill="#90B654" transform="translate(390,291)"/>
<path d="M0 0 C1.65 0 3.3 0 5 0 C5 0.66 5 1.32 5 2 C5.66 2 6.32 2 7 2 C6.67 3.65 6.34 5.3 6 7 C1.125 2.25 1.125 2.25 0 0 Z " fill="#94B64A" transform="translate(264,265)"/>
<path d="M0 0 C0.99 0.495 0.99 0.495 2 1 C2.6328125 3.50390625 2.6328125 3.50390625 3.125 6.5625 C3.29257812 7.57441406 3.46015625 8.58632812 3.6328125 9.62890625 C3.75398438 10.41136719 3.87515625 11.19382813 4 12 C3.01 11.67 2.02 11.34 1 11 C0.67 7.37 0.34 3.74 0 0 Z " fill="#A3C165" transform="translate(290,223)"/>
<path d="M0 0 C4.43458973 1.3937282 6.87378374 3.60582235 10 7 C8.68 6.67 7.36 6.34 6 6 C6 5.34 6 4.68 6 4 C4.35 4 2.7 4 1 4 C0.67 2.68 0.34 1.36 0 0 Z " fill="#4BA8E8" transform="translate(60,200)"/>
<path d="M0 0 C0.33 1.32 0.66 2.64 1 4 C0.34 4 -0.32 4 -1 4 C-1.99 6.97 -2.98 9.94 -4 13 C-5.2285915 8.085634 -4.21665338 6.43330675 -2 2 C-1.34 1.34 -0.68 0.68 0 0 Z " fill="#5BB1E8" transform="translate(86,144)"/>
<path d="M0 0 C0.33 0.66 0.66 1.32 1 2 C0.06553465 4.03144641 -0.93224776 6.03533587 -2 8 C-2.99 8 -3.98 8 -5 8 C-5 8.66 -5 9.32 -5 10 C-5.66 10 -6.32 10 -7 10 C-5.33248852 6.05860922 -2.77289351 3.2107188 0 0 Z " fill="#53AFE9" transform="translate(199,127)"/>
<path d="M0 0 C-3.40219265 2.74792483 -7.48464588 6 -12 6 C-12 5.34 -12 4.68 -12 4 C-11.34 4 -10.68 4 -10 4 C-10 3.34 -10 2.68 -10 2 C-6.49223216 0.39644899 -3.85645121 -0.22036864 0 0 Z " fill="#4EA9E8" transform="translate(288,93)"/>
<path d="M0 0 C3.7910119 1.44950455 7.3874638 3.15172566 11 5 C7.96929372 6.28222189 6.96403086 5.98589446 3.8125 4.75 C1 3 1 3 0 0 Z " fill="#6FBAEE" transform="translate(417,71)"/>
<path d="M0 0 C0 0.66 0 1.32 0 2 C-1.40751221 2.86916887 -2.8264521 3.71985149 -4.25 4.5625 C-5.03890625 5.03816406 -5.8278125 5.51382813 -6.640625 6.00390625 C-9.30844625 7.13022151 -10.34501768 7.0169313 -13 6 C-11.21118264 4.99491199 -9.41885304 3.99607264 -7.625 3 C-6.62726563 2.443125 -5.62953125 1.88625 -4.6015625 1.3125 C-2 0 -2 0 0 0 Z " fill="#50ABEA" transform="translate(275,64)"/>
<path d="M0 0 C-1.31224548 3.93673644 -2.91910327 6.22719294 -6 9 C-6.25 6.75 -6.25 6.75 -6 4 C-2.75675676 0 -2.75675676 0 0 0 Z " fill="#4FABE9" transform="translate(211,364)"/>
<path d="M0 0 C0.99 0 1.98 0 3 0 C3 0.66 3 1.32 3 2 C1.5390625 3.2890625 1.5390625 3.2890625 -0.375 4.625 C-1.00148438 5.07101562 -1.62796875 5.51703125 -2.2734375 5.9765625 C-4 7 -4 7 -6 7 C-5.34 5.35 -4.68 3.7 -4 2 C-2.68 2 -1.36 2 0 2 C0 1.34 0 0.68 0 0 Z " fill="#53ACE9" transform="translate(432,349)"/>
<path d="M0 0 C0.33 0.66 0.66 1.32 1 2 C0.00390625 4.3828125 0.00390625 4.3828125 -1.4375 7.125 C-1.91058594 8.03507813 -2.38367188 8.94515625 -2.87109375 9.8828125 C-3.24363281 10.58148438 -3.61617187 11.28015625 -4 12 C-5.13583456 8.28272326 -4.66670026 6.52948291 -3 3 C-2.34 3 -1.68 3 -1 3 C-0.67 2.01 -0.34 1.02 0 0 Z " fill="#61B2EC" transform="translate(524,242)"/>
<path d="M0 0 C0.33 0 0.66 0 1 0 C1.33 2.64 1.66 5.28 2 8 C0.02 8.99 0.02 8.99 -2 10 C-1.85950482 8.52031676 -1.71245174 7.04125484 -1.5625 5.5625 C-1.48128906 4.73878906 -1.40007813 3.91507813 -1.31640625 3.06640625 C-1 1 -1 1 0 0 Z " fill="#38A0EB" transform="translate(26,213)"/>
<path d="M0 0 C0.33 0 0.66 0 1 0 C1 3.96 1 7.92 1 12 C0.01 12.495 0.01 12.495 -1 13 C-2.0070238 7.96488101 -1.97387813 4.76052962 0 0 Z " fill="#98BE57" transform="translate(254,187)"/>
<path d="M0 0 C3 1 3 1 4.8125 3.8125 C6 7 6 7 5.07421875 9.19921875 C4.71972656 9.79347656 4.36523438 10.38773438 4 11 C3.32880451 9.5437455 2.66318193 8.08492133 2 6.625 C1.62875 5.81289062 1.2575 5.00078125 0.875 4.1640625 C0 2 0 2 0 0 Z " fill="#A0BE66" transform="translate(382,191)"/>
<path d="M0 0 C1.32 0.33 2.64 0.66 4 1 C3.01 2.485 3.01 2.485 2 4 C1.34 4 0.68 4 0 4 C-0.66 5.32 -1.32 6.64 -2 8 C-2.33 6.35 -2.66 4.7 -3 3 C-2.01 2.67 -1.02 2.34 0 2 C0 1.34 0 0.68 0 0 Z " fill="#95B755" transform="translate(300,182)"/>
<path d="M0 0 C4.55737263 0.43820891 7.57653445 0.85041169 11 4 C9 5 9 5 6.0625 4.25 C3.25169164 3.10273128 1.8842594 2.30298372 0 0 Z " fill="#9DBB5D" transform="translate(367,131)"/>
<path d="M0 0 C3.53600465 1.91135386 5.78972846 3.62642766 8 7 C4.83119306 7 3.56310828 6.7941758 1 5 C0.25 2.375 0.25 2.375 0 0 Z " fill="#4EADEB" transform="translate(456,96)"/>
<path d="M0 0 C-0.495 0.474375 -0.99 0.94875 -1.5 1.4375 C-3.11542197 2.75923698 -3.11542197 2.75923698 -3 4 C-5.64 4 -8.28 4 -11 4 C-3.77464789 -1.88732394 -3.77464789 -1.88732394 0 0 Z " fill="#5DB5ED" transform="translate(409,331)"/>
<path d="M0 0 C0.66 1.32 1.32 2.64 2 4 C0.68 4.33 -0.64 4.66 -2 5 C-2 5.66 -2 6.32 -2 7 C-3.32 6.67 -4.64 6.34 -6 6 C-4.02 4.02 -2.04 2.04 0 0 Z " fill="#50AEEA" transform="translate(448,299)"/>
<path d="M0 0 C0.66 0 1.32 0 2 0 C2 0.99 2 1.98 2 3 C-0.3125 5.25 -0.3125 5.25 -3 7 C-3.99 6.67 -4.98 6.34 -6 6 C-4 4 -2 2 0 0 Z " fill="#8AAD43" transform="translate(372,252)"/>
<path d="M0 0 C0.13277344 0.57234375 0.26554687 1.1446875 0.40234375 1.734375 C0.99380317 3.97650875 1.73288854 6.08579619 2.5625 8.25 C2.96662109 9.30960938 2.96662109 9.30960938 3.37890625 10.390625 C3.58386719 10.92171875 3.78882813 11.4528125 4 12 C3.01 12 2.02 12 1 12 C-1.23551759 8.64672361 -1.17283528 8.09256343 -0.625 4.3125 C-0.51414063 3.50425781 -0.40328125 2.69601563 -0.2890625 1.86328125 C-0.19367187 1.24839844 -0.09828125 0.63351563 0 0 Z " fill="#43A9EB" transform="translate(40,221)"/>
<path d="M0 0 C1.09991843 3.29975529 1.35996895 5.54429807 1 9 C-1 10.875 -1 10.875 -3 12 C-3 10.35 -3 8.7 -3 7 C-2.34 7 -1.68 7 -1 7 C-0.67 4.69 -0.34 2.38 0 0 Z " fill="#1B93EA" transform="translate(324,201)"/>
<path d="M0 0 C0.33 1.65 0.66 3.3 1 5 C-1.64 5 -4.28 5 -7 5 C-2.25 0 -2.25 0 0 0 Z " fill="#349DE8" transform="translate(38,202)"/>
<path d="M0 0 C2.6895528 2.6895528 3.69331154 5.45327417 5 9 C4.67 9.99 4.34 10.98 4 12 C3.896875 11.360625 3.79375 10.72125 3.6875 10.0625 C3.460625 9.381875 3.23375 8.70125 3 8 C2.01 7.67 1.02 7.34 0 7 C0 4.69 0 2.38 0 0 Z " fill="#67B8EE" transform="translate(529,194)"/>
<path d="M0 0 C3.44216672 2.6598561 3.99504674 5.90288286 5 10 C3.0625 9.5 3.0625 9.5 1 8 C0.31209578 5.30341548 0.18053536 2.7982981 0 0 Z " fill="#57AEEA" transform="translate(524,184)"/>
<path d="M0 0 C1.31611677 0.95336021 2.62778961 1.91285774 3.9375 2.875 C4.66839844 3.40867188 5.39929688 3.94234375 6.15234375 4.4921875 C8 6 8 6 9 8 C7.68 8 6.36 8 5 8 C4.67 7.01 4.34 6.02 4 5 C3.01 5 2.02 5 1 5 C0.67 3.35 0.34 1.7 0 0 Z " fill="#91B451" transform="translate(392,143)"/>
<path d="M0 0 C-5.445 2.475 -5.445 2.475 -11 5 C-11.33 4.34 -11.66 3.68 -12 3 C-11.01 3 -10.02 3 -9 3 C-9 2.01 -9 1.02 -9 0 C-5.32431536 -0.91892116 -3.83619425 -0.95904856 0 0 Z " fill="#99B954" transform="translate(324,170)"/>
<path d="M0 0 C1.32 0.33 2.64 0.66 4 1 C4.33 1.99 4.66 2.98 5 4 C5.66 4.66 6.32 5.32 7 6 C6.01 7.485 6.01 7.485 5 9 C3.35 6.03 1.7 3.06 0 0 Z " fill="#65B6EA" transform="translate(481,167)"/>
<path d="M0 0 C0.99 0.33 1.98 0.66 3 1 C3 1.66 3 2.32 3 3 C4.32 3.66 5.64 4.32 7 5 C7 5.66 7 6.32 7 7 C5.35 6.67 3.7 6.34 2 6 C1.34 4.02 0.68 2.04 0 0 Z " fill="#61B6EC" transform="translate(464,103)"/>
<path d="M0 0 C1.46067199 0.45082469 2.91848032 0.91093537 4.375 1.375 C5.18710937 1.63023438 5.99921875 1.88546875 6.8359375 2.1484375 C9 3 9 3 11 5 C10.01 5.495 10.01 5.495 9 6 C7.08984375 5.29296875 7.08984375 5.29296875 4.9375 4.1875 C4.22464844 3.83042969 3.51179688 3.47335938 2.77734375 3.10546875 C1 2 1 2 0 0 Z " fill="#54ADEB" transform="translate(405,66)"/>
<path d="M0 0 C8.03571429 -0.40178571 8.03571429 -0.40178571 12 3 C10.18674449 2.88648483 8.37436643 2.75887039 6.5625 2.625 C5.04849609 2.52058594 5.04849609 2.52058594 3.50390625 2.4140625 C2.67761719 2.27742188 1.85132813 2.14078125 1 2 C0.67 1.34 0.34 0.68 0 0 Z " fill="#44A4E9" transform="translate(387,61)"/>
<path d="M0 0 C-2.42130331 2.42130331 -3.80111377 2.52840504 -7.125 3.125 C-8.49011719 3.37636719 -8.49011719 3.37636719 -9.8828125 3.6328125 C-10.58148438 3.75398438 -11.28015625 3.87515625 -12 4 C-7.66457495 0.67617413 -5.52858726 -0.12018668 0 0 Z " fill="#5EB6EB" transform="translate(383,374)"/>
<path d="M0 0 C3.7952131 1.49097658 5.61042731 3.75700849 8 7 C6.35 6.67 4.7 6.34 3 6 C3 5.01 3 4.02 3 3 C2.01 3 1.02 3 0 3 C0 2.01 0 1.02 0 0 Z " fill="#54ACEA" transform="translate(198,331)"/>
<path d="M0 0 C-1.375 2 -1.375 2 -3 4 C-3.66 4 -4.32 4 -5 4 C-5.33 4.66 -5.66 5.32 -6 6 C-6.33 4.35 -6.66 2.7 -7 1 C-4.53721199 -0.231394 -2.7204945 -0.07159196 0 0 Z " fill="#39A1EA" transform="translate(458,331)"/>
<path d="M0 0 C3.81684226 1.55500981 6.19195732 4.03595495 9 7 C7.35 6.67 5.7 6.34 4 6 C3.67 5.01 3.34 4.02 3 3 C2.34 3 1.68 3 1 3 C0.67 2.01 0.34 1.02 0 0 Z " fill="#66BEEC" transform="translate(255,320)"/>
<path d="M0 0 C1.32 0.33 2.64 0.66 4 1 C2.02 3.31 0.04 5.62 -2 8 C-2.33 7.01 -2.66 6.02 -3 5 C-1.5625 2.3125 -1.5625 2.3125 0 0 Z " fill="#92B052" transform="translate(409,268)"/>
<path d="M0 0 C0.66 0 1.32 0 2 0 C1.54917531 1.46067199 1.08906463 2.91848032 0.625 4.375 C0.36976563 5.18710938 0.11453125 5.99921875 -0.1484375 6.8359375 C-1 9 -1 9 -3 11 C-2.53199289 6.94393835 -2.12046792 3.53411321 0 0 Z " fill="#55ACE7" transform="translate(528,231)"/>
<path d="M0 0 C2.97 0.33 5.94 0.66 9 1 C9 1.66 9 2.32 9 3 C6.36 3 3.72 3 1 3 C0.67 2.01 0.34 1.02 0 0 Z " fill="#51AAE7" transform="translate(101,170)"/>
<path d="M0 0 C3.08089673 2.77280706 4.68775452 5.06326356 6 9 C3.525 8.01 3.525 8.01 1 7 C0.67 4.69 0.34 2.38 0 0 Z " fill="#5CB3EE" transform="translate(511,160)"/>
<path d="M0 0 C0.33 0.66 0.66 1.32 1 2 C1.639375 2.268125 2.27875 2.53625 2.9375 2.8125 C5.68156708 4.39241741 6.06890124 6.0515206 7 9 C5.125 8.75 5.125 8.75 3 8 C1.35127493 5.4835249 0.62687294 2.92540704 0 0 Z " fill="#6EBDEB" transform="translate(124,140)"/>
<path d="M0 0 C2.96404505 2.80804268 5.44499019 5.18315774 7 9 C5.68 9 4.36 9 3 9 C2.87625 8.360625 2.7525 7.72125 2.625 7.0625 C2.315625 6.0415625 2.315625 6.0415625 2 5 C1.34 4.67 0.68 4.34 0 4 C0 2.68 0 1.36 0 0 Z " fill="#4BA7E6" transform="translate(487,126)"/>
<path d="M0 0 C2.31 0 4.62 0 7 0 C6.67 1.98 6.34 3.96 6 6 C3.97945196 4.35830472 1.97956942 2.69088222 0 1 C0 0.67 0 0.34 0 0 Z " fill="#2193E8" transform="translate(451,130)"/>
<path d="M0 0 C1.9375 0.625 1.9375 0.625 4 2 C4.75 5.125 4.75 5.125 5 8 C2 7 2 7 0.8125 5.125 C0 3 0 3 0 0 Z " fill="#359EE7" transform="translate(144,100)"/>
<path d="M0 0 C4.55737263 0.43820891 7.57653445 0.85041169 11 4 C8 5 8 5 5.95703125 4.22265625 C5.24933594 3.83980469 4.54164063 3.45695312 3.8125 3.0625 C3.09707031 2.68222656 2.38164062 2.30195312 1.64453125 1.91015625 C1.10183594 1.60980469 0.55914062 1.30945313 0 1 C0 0.67 0 0.34 0 0 Z " fill="#43A4EB" transform="translate(405,98)"/>
<path d="M0 0 C1.32 0.33 2.64 0.66 4 1 C-1.75 6 -1.75 6 -4 6 C-3.67 5.01 -3.34 4.02 -3 3 C-2.01 3 -1.02 3 0 3 C0 2.01 0 1.02 0 0 Z " fill="#5AB3EA" transform="translate(201,373)"/>
<path d="M0 0 C1.98 0 3.96 0 6 0 C4.3545622 1.68762851 2.68711423 3.3540349 1 5 C0.67 5 0.34 5 0 5 C0 3.35 0 1.7 0 0 Z " fill="#46ABEA" transform="translate(444,338)"/>
<path d="M0 0 C0.66 0.33 1.32 0.66 2 1 C1.375 2.9375 1.375 2.9375 0 5 C-3.125 5.75 -3.125 5.75 -6 6 C-4 4 -2 2 0 0 Z " fill="#48AAEA" transform="translate(432,313)"/>
<path d="M0 0 C0.66 0 1.32 0 2 0 C4.125 4.625 4.125 4.625 3 8 C1.5 6.8125 1.5 6.8125 0 5 C-0.1875 2.3125 -0.1875 2.3125 0 0 Z " fill="#369CE6" transform="translate(91,297)"/>
<path d="M0 0 C3.45925163 1.2491742 6.14693203 2.67527795 9 5 C3.5 5.36666667 3.5 5.36666667 1.125 3.625 C0 2 0 2 0 0 Z " fill="#9ABA5B" transform="translate(311,256)"/>
<path d="M0 0 C2.97 0.33 5.94 0.66 9 1 C9 1.99 9 2.98 9 4 C6.03 3.01 3.06 2.02 0 1 C0 0.67 0 0.34 0 0 Z " fill="#57AFE8" transform="translate(280,370)"/>
<path d="M0 0 C3.65316671 1.24976756 4.78065836 1.67098753 7 5 C6.67 5.99 6.34 6.98 6 8 C4.02 5.36 2.04 2.72 0 0 Z " fill="#4FACEA" transform="translate(225,330)"/>
<path d="M0 0 C0.53625 0.226875 1.0725 0.45375 1.625 0.6875 C-3.79038462 3.76442308 -3.79038462 3.76442308 -6.75 3.375 C-7.554375 3.0346875 -7.554375 3.0346875 -8.375 2.6875 C-2.95961538 -0.38942308 -2.95961538 -0.38942308 0 0 Z " fill="#4FACE9" transform="translate(130.375,313.3125)"/>
<path d="M0 0 C0.33 0.66 0.66 1.32 1 2 C-1.45454545 7.72727273 -1.45454545 7.72727273 -4 9 C-2.25 2.25 -2.25 2.25 0 0 Z " fill="#4AA4E4" transform="translate(75,233)"/>
<path d="M0 0 C1.48828125 1.26953125 1.48828125 1.26953125 3 3 C3.1875 6.6875 3.1875 6.6875 3 10 C2.34 9.67 1.68 9.34 1 9 C0.5859375 6.93359375 0.5859375 6.93359375 0.375 4.4375 C0.30023438 3.61121094 0.22546875 2.78492188 0.1484375 1.93359375 C0.09945313 1.29550781 0.05046875 0.65742188 0 0 Z " fill="#48A4E4" transform="translate(356,203)"/>
<path d="M0 0 C2.475 0.99 2.475 0.99 5 2 C5 4.31 5 6.62 5 9 C0.57142857 3.85714286 0.57142857 3.85714286 0 0 Z " fill="#5AB0ED" transform="translate(487,176)"/>
<path d="M0 0 C3.35595828 0.59927826 5.37801226 1.84622436 8 4 C6.02 4 4.04 4 2 4 C1.34 2.68 0.68 1.36 0 0 Z " fill="#A2C06B" transform="translate(378,135)"/>
<path d="M0 0 C2.79872437 2.52788007 4.45773019 4.20411134 5 8 C2 7 2 7 0 4 C0 2.68 0 1.36 0 0 Z " fill="#5DB3EC" transform="translate(206,338)"/>
<path d="M0 0 C4.75 1.875 4.75 1.875 7 3 C6.67 3.99 6.34 4.98 6 6 C5.34 6 4.68 6 4 6 C2.61061923 4.03852126 1.2739589 2.03833424 0 0 Z " fill="#53B2EA" transform="translate(214,318)"/>
<path d="M0 0 C-2 2 -2 2 -5.625 2.125 C-6.73875 2.08375 -7.8525 2.0425 -9 2 C-8.67 1.34 -8.34 0.68 -8 0 C-4.71585695 -0.95067299 -3.30306592 -1.10102197 0 0 Z " fill="#2999EC" transform="translate(123,316)"/>
<path d="M0 0 C3.40312738 1.05875074 6.01353231 2.00902154 9 4 C8.67 4.66 8.34 5.32 8 6 C1.125 2.25 1.125 2.25 0 0 Z " fill="#6CB6EB" transform="translate(216,282)"/>
<path d="M0 0 C0.6875 1.625 0.6875 1.625 1 4 C-0.4375 7.25 -0.4375 7.25 -2 10 C-2.66 10 -3.32 10 -4 10 C-2.8905928 6.51329166 -1.73662334 3.22515763 0 0 Z " fill="#6CB8EC" transform="translate(491,241)"/>
<path d="M0 0 C0.99 0 1.98 0 3 0 C2.01 3.3 1.02 6.6 0 10 C-1.00000429 5.99998285 -0.80688405 3.94476647 0 0 Z " fill="#57AFE8" transform="translate(531,221)"/>
<path d="M0 0 C0.66 0.33 1.32 0.66 2 1 C-0.57404971 4.86107457 -2.61020259 4.94319692 -7 6 C-4.74259377 3.66475218 -2.7194239 1.81294927 0 0 Z " fill="#A2BD6B" transform="translate(292,139)"/>
<path d="M0 0 C1.4540625 0.0309375 1.4540625 0.0309375 2.9375 0.0625 C2.6075 0.7225 2.2775 1.3825 1.9375 2.0625 C1.2775 2.0625 0.6175 2.0625 -0.0625 2.0625 C-0.0625 2.7225 -0.0625 3.3825 -0.0625 4.0625 C-1.0525 4.3925 -2.0425 4.7225 -3.0625 5.0625 C-3.625 3.125 -3.625 3.125 -4.0625 1.0625 C-3.0625 0.0625 -3.0625 0.0625 0 0 Z " fill="#49A7E9" transform="translate(239.0625,122.9375)"/>
</svg>
